%TF.GenerationSoftware,KiCad,Pcbnew,10.0.1*%
%TF.CreationDate,2026-04-20T14:19:03-04:00*%
%TF.ProjectId,Videocraft Tamagotchi,56696465-6f63-4726-9166-742054616d61,rev?*%
%TF.SameCoordinates,Original*%
%TF.FileFunction,Legend,Top*%
%TF.FilePolarity,Positive*%
%FSLAX46Y46*%
G04 Gerber Fmt 4.6, Leading zero omitted, Abs format (unit mm)*
G04 Created by KiCad (PCBNEW 10.0.1) date 2026-04-20 14:19:03*
%MOMM*%
%LPD*%
G01*
G04 APERTURE LIST*
%ADD10C,0.200000*%
%ADD11C,0.150000*%
%ADD12C,0.250000*%
%ADD13C,0.060000*%
G04 APERTURE END LIST*
D10*
X132000000Y-47500000D02*
X131986872Y-47508669D01*
X131986872Y-47508669D02*
X131973669Y-47517224D01*
X131973669Y-47517224D02*
X131960392Y-47525663D01*
X131960392Y-47525663D02*
X131947042Y-47533986D01*
X131947042Y-47533986D02*
X131933619Y-47542192D01*
X131933619Y-47542192D02*
X131920126Y-47550280D01*
X131920126Y-47550280D02*
X131906562Y-47558251D01*
X131906562Y-47558251D02*
X131892929Y-47566103D01*
X131892929Y-47566103D02*
X131879229Y-47573835D01*
X131879229Y-47573835D02*
X131865461Y-47581448D01*
X131865461Y-47581448D02*
X131851628Y-47588940D01*
X131851628Y-47588940D02*
X131837729Y-47596311D01*
X131837729Y-47596311D02*
X131823767Y-47603561D01*
X131823767Y-47603561D02*
X131809742Y-47610689D01*
X131809742Y-47610689D02*
X131795656Y-47617693D01*
X131795656Y-47617693D02*
X131781508Y-47624575D01*
X131781508Y-47624575D02*
X131767302Y-47631333D01*
X131767302Y-47631333D02*
X131753037Y-47637967D01*
X131753037Y-47637967D02*
X131738714Y-47644476D01*
X131738714Y-47644476D02*
X131724335Y-47650860D01*
X131724335Y-47650860D02*
X131709902Y-47657118D01*
X131709902Y-47657118D02*
X131695414Y-47663250D01*
X131695414Y-47663250D02*
X131680873Y-47669255D01*
X131680873Y-47669255D02*
X131666280Y-47675133D01*
X131666280Y-47675133D02*
X131651637Y-47680884D01*
X131651637Y-47680884D02*
X131636943Y-47686506D01*
X131636943Y-47686506D02*
X131622202Y-47692000D01*
X131622202Y-47692000D02*
X131607413Y-47697365D01*
X131607413Y-47697365D02*
X131592578Y-47702601D01*
X131592578Y-47702601D02*
X131577697Y-47707708D01*
X131577697Y-47707708D02*
X131562773Y-47712684D01*
X131562773Y-47712684D02*
X131547806Y-47717530D01*
X131547806Y-47717530D02*
X131532797Y-47722245D01*
X131532797Y-47722245D02*
X131517747Y-47726829D01*
X131517747Y-47726829D02*
X131502658Y-47731281D01*
X131502658Y-47731281D02*
X131487531Y-47735602D01*
X131487531Y-47735602D02*
X131472367Y-47739790D01*
X131472367Y-47739790D02*
X131457166Y-47743846D01*
X131457166Y-47743846D02*
X131441931Y-47747769D01*
X131441931Y-47747769D02*
X131426662Y-47751559D01*
X131426662Y-47751559D02*
X131411361Y-47755216D01*
X131411361Y-47755216D02*
X131396029Y-47758739D01*
X131396029Y-47758739D02*
X131380666Y-47762128D01*
X131380666Y-47762128D02*
X131365274Y-47765382D01*
X131365274Y-47765382D02*
X131349854Y-47768503D01*
X131349854Y-47768503D02*
X131334408Y-47771488D01*
X131334408Y-47771488D02*
X131318936Y-47774339D01*
X131318936Y-47774339D02*
X131303440Y-47777055D01*
X131303440Y-47777055D02*
X131287921Y-47779635D01*
X131287921Y-47779635D02*
X131272380Y-47782080D01*
X131272380Y-47782080D02*
X131256819Y-47784389D01*
X131256819Y-47784389D02*
X131241237Y-47786562D01*
X131241237Y-47786562D02*
X131225638Y-47788599D01*
X131225638Y-47788599D02*
X131210021Y-47790500D01*
X131210021Y-47790500D02*
X131194388Y-47792265D01*
X131194388Y-47792265D02*
X131178740Y-47793893D01*
X131178740Y-47793893D02*
X131163079Y-47795384D01*
X131163079Y-47795384D02*
X131147405Y-47796739D01*
X131147405Y-47796739D02*
X131131720Y-47797957D01*
X131131720Y-47797957D02*
X131116025Y-47799038D01*
X131116025Y-47799038D02*
X131100322Y-47799982D01*
X131100322Y-47799982D02*
X131084610Y-47800789D01*
X131084610Y-47800789D02*
X131068892Y-47801459D01*
X131068892Y-47801459D02*
X131053169Y-47801991D01*
X131053169Y-47801991D02*
X131037442Y-47802387D01*
X131037442Y-47802387D02*
X131021712Y-47802645D01*
X131021712Y-47802645D02*
X131005980Y-47802766D01*
X131005980Y-47802766D02*
X130990248Y-47802749D01*
X130990248Y-47802749D02*
X130974517Y-47802596D01*
X130974517Y-47802596D02*
X130958787Y-47802305D01*
X130958787Y-47802305D02*
X130943061Y-47801876D01*
X130943061Y-47801876D02*
X130927339Y-47801311D01*
X130927339Y-47801311D02*
X130911623Y-47800608D01*
X130911623Y-47800608D02*
X130895913Y-47799768D01*
X130895913Y-47799768D02*
X130880211Y-47798791D01*
X130880211Y-47798791D02*
X130864519Y-47797678D01*
X130864519Y-47797678D02*
X130848836Y-47796427D01*
X130848836Y-47796427D02*
X130833165Y-47795039D01*
X130833165Y-47795039D02*
X130817507Y-47793515D01*
X130817507Y-47793515D02*
X130801863Y-47791854D01*
X130801863Y-47791854D02*
X130786234Y-47790057D01*
X130786234Y-47790057D02*
X130770621Y-47788123D01*
X130770621Y-47788123D02*
X130755026Y-47786054D01*
X130755026Y-47786054D02*
X130739449Y-47783848D01*
X130739449Y-47783848D02*
X130723892Y-47781506D01*
X130723892Y-47781506D02*
X130708356Y-47779029D01*
X130708356Y-47779029D02*
X130692843Y-47776416D01*
X130692843Y-47776416D02*
X130677352Y-47773668D01*
X130677352Y-47773668D02*
X130661887Y-47770785D01*
X130661887Y-47770785D02*
X130646447Y-47767767D01*
X130646447Y-47767767D02*
X130631034Y-47764614D01*
X130631034Y-47764614D02*
X130615649Y-47761327D01*
X130615649Y-47761327D02*
X130600293Y-47757906D01*
X130600293Y-47757906D02*
X130584968Y-47754351D01*
X130584968Y-47754351D02*
X130569674Y-47750663D01*
X130569674Y-47750663D02*
X130554413Y-47746841D01*
X130554413Y-47746841D02*
X130539186Y-47742886D01*
X130539186Y-47742886D02*
X130523995Y-47738798D01*
X130523995Y-47738798D02*
X130508839Y-47734578D01*
X130508839Y-47734578D02*
X130493721Y-47730226D01*
X130493721Y-47730226D02*
X130478641Y-47725742D01*
X130478641Y-47725742D02*
X130463601Y-47721127D01*
X130463601Y-47721127D02*
X130448602Y-47716380D01*
X130448602Y-47716380D02*
X130433645Y-47711503D01*
X130433645Y-47711503D02*
X130418731Y-47706495D01*
X130418731Y-47706495D02*
X130403862Y-47701358D01*
X130403862Y-47701358D02*
X130389037Y-47696091D01*
X130389037Y-47696091D02*
X130374260Y-47690695D01*
X130374260Y-47690695D02*
X130359530Y-47685170D01*
X130359530Y-47685170D02*
X130344848Y-47679517D01*
X130344848Y-47679517D02*
X130330217Y-47673736D01*
X130330217Y-47673736D02*
X130315637Y-47667827D01*
X130315637Y-47667827D02*
X130301108Y-47661791D01*
X130301108Y-47661791D02*
X130286633Y-47655629D01*
X130286633Y-47655629D02*
X130272212Y-47649341D01*
X130272212Y-47649341D02*
X130257847Y-47642927D01*
X130257847Y-47642927D02*
X130243538Y-47636388D01*
X130243538Y-47636388D02*
X130229287Y-47629724D01*
X130229287Y-47629724D02*
X130215095Y-47622937D01*
X130215095Y-47622937D02*
X130200962Y-47616025D01*
X130200962Y-47616025D02*
X130186890Y-47608991D01*
X130186890Y-47608991D02*
X130172880Y-47601834D01*
X130172880Y-47601834D02*
X130158933Y-47594555D01*
X130158933Y-47594555D02*
X130145050Y-47587155D01*
X130145050Y-47587155D02*
X130131232Y-47579634D01*
X130131232Y-47579634D02*
X130117481Y-47571992D01*
X130117481Y-47571992D02*
X130103796Y-47564231D01*
X130103796Y-47564231D02*
X130090180Y-47556351D01*
X130090180Y-47556351D02*
X130076633Y-47548352D01*
X130076633Y-47548352D02*
X130063157Y-47540235D01*
X130063157Y-47540235D02*
X130049751Y-47532001D01*
X130049751Y-47532001D02*
X130036418Y-47523650D01*
X130036418Y-47523650D02*
X130023159Y-47515184D01*
X130023159Y-47515184D02*
X130009974Y-47506602D01*
X130009974Y-47506602D02*
X129996864Y-47497905D01*
X129996864Y-47497905D02*
X129983831Y-47489094D01*
X129983831Y-47489094D02*
X129970875Y-47480169D01*
X129970875Y-47480169D02*
X129957997Y-47471132D01*
X129957997Y-47471132D02*
X129945199Y-47461983D01*
X129945199Y-47461983D02*
X129934502Y-47454205D01*
X129413356Y-46855897D02*
X129394757Y-46820485D01*
X129197969Y-46051823D02*
X129197586Y-46036096D01*
X129197586Y-46036096D02*
X129197339Y-46020365D01*
X129197339Y-46020365D02*
X129197230Y-46004634D01*
X129197230Y-46004634D02*
X129197259Y-45988901D01*
X129197259Y-45988901D02*
X129197424Y-45973170D01*
X129197424Y-45973170D02*
X129197727Y-45957441D01*
X129197727Y-45957441D02*
X129198167Y-45941715D01*
X129198167Y-45941715D02*
X129198744Y-45925993D01*
X129198744Y-45925993D02*
X129199458Y-45910278D01*
X129199458Y-45910278D02*
X129200310Y-45894568D01*
X129200310Y-45894568D02*
X129201299Y-45878867D01*
X129201299Y-45878867D02*
X129202424Y-45863176D01*
X129202424Y-45863176D02*
X129203687Y-45847494D01*
X129203687Y-45847494D02*
X129205086Y-45831824D01*
X129205086Y-45831824D02*
X129206622Y-45816167D01*
X129206622Y-45816167D02*
X129208294Y-45800524D01*
X129208294Y-45800524D02*
X129210103Y-45784897D01*
X129210103Y-45784897D02*
X129212048Y-45769285D01*
X129212048Y-45769285D02*
X129214130Y-45753691D01*
X129214130Y-45753691D02*
X129216347Y-45738116D01*
X129216347Y-45738116D02*
X129218701Y-45722561D01*
X129218701Y-45722561D02*
X129221189Y-45707027D01*
X129221189Y-45707027D02*
X129223814Y-45691515D01*
X129223814Y-45691515D02*
X129226573Y-45676027D01*
X129226573Y-45676027D02*
X129229468Y-45660564D01*
X129229468Y-45660564D02*
X129232498Y-45645126D01*
X129232498Y-45645126D02*
X129235662Y-45629715D01*
X129235662Y-45629715D02*
X129238960Y-45614333D01*
X129238960Y-45614333D02*
X129242393Y-45598980D01*
X129242393Y-45598980D02*
X129245959Y-45583657D01*
X129245959Y-45583657D02*
X129249659Y-45568366D01*
X129249659Y-45568366D02*
X129253493Y-45553108D01*
X129253493Y-45553108D02*
X129257459Y-45537885D01*
X129257459Y-45537885D02*
X129261558Y-45522696D01*
X129261558Y-45522696D02*
X129265789Y-45507543D01*
X129265789Y-45507543D02*
X129270153Y-45492428D01*
X129270153Y-45492428D02*
X129274648Y-45477352D01*
X129274648Y-45477352D02*
X129279275Y-45462316D01*
X129279275Y-45462316D02*
X129284032Y-45447320D01*
X129284032Y-45447320D02*
X129288921Y-45432367D01*
X129288921Y-45432367D02*
X129293939Y-45417457D01*
X129293939Y-45417457D02*
X129299088Y-45402591D01*
X129299088Y-45402591D02*
X129304366Y-45387771D01*
X129304366Y-45387771D02*
X129309773Y-45372997D01*
X129309773Y-45372997D02*
X129315309Y-45358271D01*
X129315309Y-45358271D02*
X129320973Y-45343594D01*
X129320973Y-45343594D02*
X129326765Y-45328967D01*
X129326765Y-45328967D02*
X129332685Y-45314391D01*
X129332685Y-45314391D02*
X129338731Y-45299867D01*
X129338731Y-45299867D02*
X129344904Y-45285397D01*
X129344904Y-45285397D02*
X129351203Y-45270980D01*
X129351203Y-45270980D02*
X129357628Y-45256620D01*
X129357628Y-45256620D02*
X129364178Y-45242316D01*
X129364178Y-45242316D02*
X129370852Y-45228070D01*
X129370852Y-45228070D02*
X129377650Y-45213882D01*
X129377650Y-45213882D02*
X129384572Y-45199755D01*
X129384572Y-45199755D02*
X129391617Y-45185688D01*
X129391617Y-45185688D02*
X129398784Y-45171684D01*
X129398784Y-45171684D02*
X129406074Y-45157742D01*
X129406074Y-45157742D02*
X129413484Y-45143865D01*
X129413484Y-45143865D02*
X129421016Y-45130053D01*
X129421016Y-45130053D02*
X129428667Y-45116307D01*
X129428667Y-45116307D02*
X129436439Y-45102628D01*
X129436439Y-45102628D02*
X129444329Y-45089018D01*
X129444329Y-45089018D02*
X129452338Y-45075477D01*
X129452338Y-45075477D02*
X129460465Y-45062006D01*
X129460465Y-45062006D02*
X129468709Y-45048607D01*
X129468709Y-45048607D02*
X129477070Y-45035280D01*
X129477070Y-45035280D02*
X129485547Y-45022027D01*
X129485547Y-45022027D02*
X129494138Y-45008849D01*
X129494138Y-45008849D02*
X129502845Y-44995745D01*
X129502845Y-44995745D02*
X129511666Y-44982719D01*
X129511666Y-44982719D02*
X129520600Y-44969769D01*
X129520600Y-44969769D02*
X129529647Y-44956899D01*
X129529647Y-44956899D02*
X129538805Y-44944107D01*
X129538805Y-44944107D02*
X129548075Y-44931396D01*
X129548075Y-44931396D02*
X129557456Y-44918767D01*
X129557456Y-44918767D02*
X129566946Y-44906219D01*
X129566946Y-44906219D02*
X129576545Y-44893755D01*
X129576545Y-44893755D02*
X129586253Y-44881376D01*
X129586253Y-44881376D02*
X129596069Y-44869081D01*
X129596069Y-44869081D02*
X129605991Y-44856873D01*
X129605991Y-44856873D02*
X129616020Y-44844751D01*
X129616020Y-44844751D02*
X129626154Y-44832718D01*
X129626154Y-44832718D02*
X129636393Y-44820774D01*
X129636393Y-44820774D02*
X129646735Y-44808919D01*
X129646735Y-44808919D02*
X129657181Y-44797155D01*
X129657181Y-44797155D02*
X129667728Y-44785483D01*
X129667728Y-44785483D02*
X129678378Y-44773903D01*
X129678378Y-44773903D02*
X129689128Y-44762416D01*
X129689128Y-44762416D02*
X129699977Y-44751024D01*
X129699977Y-44751024D02*
X129710926Y-44739727D01*
X129710926Y-44739727D02*
X129721973Y-44728526D01*
X129721973Y-44728526D02*
X129733117Y-44717421D01*
X129733117Y-44717421D02*
X129744358Y-44706415D01*
X129744358Y-44706415D02*
X129755694Y-44695507D01*
X129755694Y-44695507D02*
X129767125Y-44684698D01*
X129767125Y-44684698D02*
X129778650Y-44673989D01*
X129778650Y-44673989D02*
X129790268Y-44663381D01*
X129790268Y-44663381D02*
X129801978Y-44652876D01*
X129801978Y-44652876D02*
X129813780Y-44642472D01*
X129813780Y-44642472D02*
X129825671Y-44632172D01*
X129825671Y-44632172D02*
X129837652Y-44621977D01*
X129837652Y-44621977D02*
X129849722Y-44611886D01*
X129849722Y-44611886D02*
X129861879Y-44601901D01*
X129861879Y-44601901D02*
X129874123Y-44592022D01*
X129874123Y-44592022D02*
X129886453Y-44582251D01*
X129886453Y-44582251D02*
X129898867Y-44572587D01*
X129898867Y-44572587D02*
X129911366Y-44563033D01*
X129911366Y-44563033D02*
X129923947Y-44553587D01*
X129923947Y-44553587D02*
X129936610Y-44544252D01*
X129936610Y-44544252D02*
X129949354Y-44535028D01*
X129949354Y-44535028D02*
X129962178Y-44525915D01*
X129962178Y-44525915D02*
X129975081Y-44516915D01*
X129975081Y-44516915D02*
X129988063Y-44508027D01*
X129988063Y-44508027D02*
X130001121Y-44499253D01*
X130001121Y-44499253D02*
X130014255Y-44490594D01*
X130014255Y-44490594D02*
X130027465Y-44482049D01*
X130027465Y-44482049D02*
X130040748Y-44473620D01*
X130040748Y-44473620D02*
X130054105Y-44465307D01*
X130054105Y-44465307D02*
X130067533Y-44457111D01*
X130067533Y-44457111D02*
X130081033Y-44449033D01*
X130081033Y-44449033D02*
X130094602Y-44441072D01*
X130094602Y-44441072D02*
X130108241Y-44433231D01*
X130108241Y-44433231D02*
X130121947Y-44425509D01*
X130121947Y-44425509D02*
X130135721Y-44417906D01*
X130135721Y-44417906D02*
X130149560Y-44410424D01*
X130149560Y-44410424D02*
X130163464Y-44403063D01*
X130163464Y-44403063D02*
X130177431Y-44395824D01*
X130177431Y-44395824D02*
X130191461Y-44388707D01*
X130191461Y-44388707D02*
X130205553Y-44381713D01*
X130205553Y-44381713D02*
X130219705Y-44374841D01*
X130219705Y-44374841D02*
X130233917Y-44368094D01*
X130233917Y-44368094D02*
X130248187Y-44361471D01*
X130248187Y-44361471D02*
X130262515Y-44354973D01*
X130262515Y-44354973D02*
X130276898Y-44348600D01*
X130276898Y-44348600D02*
X130291337Y-44342352D01*
X130291337Y-44342352D02*
X130305829Y-44336231D01*
X130305829Y-44336231D02*
X130320374Y-44330237D01*
X130320374Y-44330237D02*
X130332643Y-44325296D01*
X131116296Y-44200979D02*
X131156181Y-44204002D01*
X131912144Y-44445010D02*
X131925679Y-44453029D01*
X131925679Y-44453029D02*
X131939144Y-44461166D01*
X131939144Y-44461166D02*
X131952537Y-44469420D01*
X131952537Y-44469420D02*
X131965857Y-44477791D01*
X131965857Y-44477791D02*
X131979104Y-44486278D01*
X131979104Y-44486278D02*
X131992276Y-44494879D01*
X131992276Y-44494879D02*
X132005373Y-44503596D01*
X132005373Y-44503596D02*
X132018393Y-44512426D01*
X132018393Y-44512426D02*
X132031336Y-44521370D01*
X132031336Y-44521370D02*
X132044200Y-44530426D01*
X132044200Y-44530426D02*
X132056984Y-44539594D01*
X132056984Y-44539594D02*
X132069688Y-44548874D01*
X132069688Y-44548874D02*
X132082311Y-44558264D01*
X132082311Y-44558264D02*
X132094851Y-44567763D01*
X132094851Y-44567763D02*
X132107308Y-44577372D01*
X132107308Y-44577372D02*
X132119680Y-44587089D01*
X132119680Y-44587089D02*
X132131967Y-44596914D01*
X132131967Y-44596914D02*
X132144168Y-44606846D01*
X132144168Y-44606846D02*
X132156282Y-44616883D01*
X132156282Y-44616883D02*
X132168308Y-44627026D01*
X132168308Y-44627026D02*
X132180245Y-44637274D01*
X132180245Y-44637274D02*
X132192092Y-44647625D01*
X132192092Y-44647625D02*
X132203848Y-44658080D01*
X132203848Y-44658080D02*
X132215512Y-44668636D01*
X132215512Y-44668636D02*
X132227084Y-44679294D01*
X132227084Y-44679294D02*
X132238563Y-44690052D01*
X132238563Y-44690052D02*
X132249947Y-44700911D01*
X132249947Y-44700911D02*
X132261236Y-44711868D01*
X132261236Y-44711868D02*
X132272429Y-44722923D01*
X132272429Y-44722923D02*
X132283525Y-44734076D01*
X132283525Y-44734076D02*
X132294523Y-44745325D01*
X132294523Y-44745325D02*
X132305423Y-44756669D01*
X132305423Y-44756669D02*
X132316223Y-44768108D01*
X132316223Y-44768108D02*
X132326923Y-44779641D01*
X132326923Y-44779641D02*
X132337522Y-44791267D01*
X132337522Y-44791267D02*
X132348019Y-44802985D01*
X132348019Y-44802985D02*
X132358413Y-44814794D01*
X132358413Y-44814794D02*
X132368704Y-44826694D01*
X132368704Y-44826694D02*
X132378891Y-44838682D01*
X132378891Y-44838682D02*
X132388973Y-44850759D01*
X132388973Y-44850759D02*
X132398949Y-44862924D01*
X132398949Y-44862924D02*
X132408819Y-44875175D01*
X132408819Y-44875175D02*
X132418581Y-44887512D01*
X132418581Y-44887512D02*
X132428235Y-44899934D01*
X132428235Y-44899934D02*
X132437780Y-44912439D01*
X132437780Y-44912439D02*
X132447216Y-44925028D01*
X132447216Y-44925028D02*
X132456542Y-44937698D01*
X132456542Y-44937698D02*
X132465757Y-44950449D01*
X132465757Y-44950449D02*
X132474860Y-44963280D01*
X132474860Y-44963280D02*
X132483851Y-44976190D01*
X132483851Y-44976190D02*
X132492728Y-44989177D01*
X132492728Y-44989177D02*
X132501492Y-45002242D01*
X132501492Y-45002242D02*
X132510142Y-45015383D01*
X132510142Y-45015383D02*
X132518677Y-45028599D01*
X132518677Y-45028599D02*
X132527096Y-45041889D01*
X132527096Y-45041889D02*
X132535399Y-45055251D01*
X132535399Y-45055251D02*
X132543585Y-45068686D01*
X132543585Y-45068686D02*
X132551653Y-45082192D01*
X132551653Y-45082192D02*
X132559604Y-45095767D01*
X132559604Y-45095767D02*
X132567435Y-45109412D01*
X132567435Y-45109412D02*
X132575147Y-45123124D01*
X132575147Y-45123124D02*
X132582739Y-45136903D01*
X132582739Y-45136903D02*
X132590211Y-45150747D01*
X132590211Y-45150747D02*
X132597561Y-45164657D01*
X132597561Y-45164657D02*
X132604790Y-45178630D01*
X132604790Y-45178630D02*
X132611897Y-45192665D01*
X132611897Y-45192665D02*
X132618880Y-45206762D01*
X132618880Y-45206762D02*
X132625741Y-45220920D01*
X132625741Y-45220920D02*
X132632478Y-45235137D01*
X132632478Y-45235137D02*
X132639090Y-45249412D01*
X132639090Y-45249412D02*
X132645578Y-45263744D01*
X132645578Y-45263744D02*
X132651940Y-45278132D01*
X132651940Y-45278132D02*
X132658177Y-45292575D01*
X132658177Y-45292575D02*
X132664287Y-45307072D01*
X132664287Y-45307072D02*
X132670270Y-45321622D01*
X132670270Y-45321622D02*
X132676127Y-45336224D01*
X132676127Y-45336224D02*
X132681855Y-45350876D01*
X132681855Y-45350876D02*
X132687456Y-45365577D01*
X132687456Y-45365577D02*
X132692928Y-45380327D01*
X132692928Y-45380327D02*
X132698271Y-45395124D01*
X132698271Y-45395124D02*
X132703485Y-45409967D01*
X132703485Y-45409967D02*
X132708569Y-45424855D01*
X132708569Y-45424855D02*
X132713523Y-45439787D01*
X132713523Y-45439787D02*
X132718346Y-45454761D01*
X132718346Y-45454761D02*
X132723039Y-45469777D01*
X132723039Y-45469777D02*
X132727600Y-45484833D01*
X132727600Y-45484833D02*
X132732030Y-45499929D01*
X132732030Y-45499929D02*
X132736328Y-45515063D01*
X132736328Y-45515063D02*
X132740494Y-45530233D01*
X132740494Y-45530233D02*
X132744527Y-45545440D01*
X132744527Y-45545440D02*
X132748427Y-45560681D01*
X132748427Y-45560681D02*
X132752195Y-45575955D01*
X132752195Y-45575955D02*
X132755828Y-45591262D01*
X132755828Y-45591262D02*
X132759328Y-45606600D01*
X132759328Y-45606600D02*
X132762694Y-45621968D01*
X132762694Y-45621968D02*
X132765926Y-45637364D01*
X132765926Y-45637364D02*
X132769023Y-45652788D01*
X132769023Y-45652788D02*
X132771986Y-45668239D01*
X132771986Y-45668239D02*
X132774814Y-45683715D01*
X132774814Y-45683715D02*
X132777506Y-45699215D01*
X132777506Y-45699215D02*
X132780063Y-45714738D01*
X132780063Y-45714738D02*
X132782485Y-45730283D01*
X132782485Y-45730283D02*
X132784771Y-45745848D01*
X132784771Y-45745848D02*
X132786921Y-45761432D01*
X132786921Y-45761432D02*
X132788934Y-45777035D01*
X132788934Y-45777035D02*
X132790812Y-45792655D01*
X132790812Y-45792655D02*
X132792553Y-45808290D01*
X132792553Y-45808290D02*
X132794158Y-45823940D01*
X132794158Y-45823940D02*
X132795626Y-45839604D01*
X132795626Y-45839604D02*
X132796957Y-45855279D01*
X132796957Y-45855279D02*
X132798152Y-45870966D01*
X132798152Y-45870966D02*
X132799209Y-45886663D01*
X132799209Y-45886663D02*
X132800130Y-45902368D01*
X132800130Y-45902368D02*
X132800913Y-45918081D01*
X132800913Y-45918081D02*
X132801560Y-45933799D01*
X132801560Y-45933799D02*
X132802069Y-45949523D01*
X132802069Y-45949523D02*
X132802441Y-45965251D01*
X132802441Y-45965251D02*
X132802675Y-45980981D01*
X132802675Y-45980981D02*
X132802773Y-45996713D01*
X132802773Y-45996713D02*
X132802733Y-46012445D01*
X132802733Y-46012445D02*
X132802555Y-46028176D01*
X132802555Y-46028176D02*
X132802241Y-46043905D01*
X132802241Y-46043905D02*
X132801789Y-46059631D01*
X132801789Y-46059631D02*
X132801200Y-46075352D01*
X132801200Y-46075352D02*
X132800474Y-46091068D01*
X132800474Y-46091068D02*
X132799611Y-46106776D01*
X132799611Y-46106776D02*
X132798610Y-46122476D01*
X132798610Y-46122476D02*
X132797473Y-46138167D01*
X132797473Y-46138167D02*
X132796199Y-46153848D01*
X132796199Y-46153848D02*
X132794788Y-46169516D01*
X132794788Y-46169516D02*
X132793240Y-46185172D01*
X132793240Y-46185172D02*
X132791556Y-46200814D01*
X132791556Y-46200814D02*
X132789736Y-46216440D01*
X132789736Y-46216440D02*
X132787779Y-46232050D01*
X132787779Y-46232050D02*
X132785686Y-46247643D01*
X132785686Y-46247643D02*
X132783457Y-46263216D01*
X132783457Y-46263216D02*
X132781092Y-46278769D01*
X132781092Y-46278769D02*
X132778591Y-46294302D01*
X132778591Y-46294302D02*
X132775955Y-46309811D01*
X132775955Y-46309811D02*
X132773634Y-46322832D01*
X132463242Y-47053053D02*
X132439519Y-47085258D01*
X132000000Y-110000000D02*
X131986872Y-110008669D01*
X131986872Y-110008669D02*
X131973669Y-110017224D01*
X131973669Y-110017224D02*
X131960392Y-110025663D01*
X131960392Y-110025663D02*
X131947042Y-110033986D01*
X131947042Y-110033986D02*
X131933619Y-110042192D01*
X131933619Y-110042192D02*
X131920126Y-110050280D01*
X131920126Y-110050280D02*
X131906562Y-110058251D01*
X131906562Y-110058251D02*
X131892929Y-110066103D01*
X131892929Y-110066103D02*
X131879229Y-110073835D01*
X131879229Y-110073835D02*
X131865461Y-110081448D01*
X131865461Y-110081448D02*
X131851628Y-110088940D01*
X131851628Y-110088940D02*
X131837729Y-110096311D01*
X131837729Y-110096311D02*
X131823767Y-110103561D01*
X131823767Y-110103561D02*
X131809742Y-110110689D01*
X131809742Y-110110689D02*
X131795656Y-110117693D01*
X131795656Y-110117693D02*
X131781508Y-110124575D01*
X131781508Y-110124575D02*
X131767302Y-110131333D01*
X131767302Y-110131333D02*
X131753037Y-110137967D01*
X131753037Y-110137967D02*
X131738714Y-110144476D01*
X131738714Y-110144476D02*
X131724335Y-110150860D01*
X131724335Y-110150860D02*
X131709902Y-110157118D01*
X131709902Y-110157118D02*
X131695414Y-110163250D01*
X131695414Y-110163250D02*
X131680873Y-110169255D01*
X131680873Y-110169255D02*
X131666280Y-110175133D01*
X131666280Y-110175133D02*
X131651637Y-110180884D01*
X131651637Y-110180884D02*
X131636943Y-110186506D01*
X131636943Y-110186506D02*
X131622202Y-110192000D01*
X131622202Y-110192000D02*
X131607413Y-110197365D01*
X131607413Y-110197365D02*
X131592578Y-110202601D01*
X131592578Y-110202601D02*
X131577697Y-110207708D01*
X131577697Y-110207708D02*
X131562773Y-110212684D01*
X131562773Y-110212684D02*
X131547806Y-110217530D01*
X131547806Y-110217530D02*
X131532797Y-110222245D01*
X131532797Y-110222245D02*
X131517747Y-110226829D01*
X131517747Y-110226829D02*
X131502658Y-110231281D01*
X131502658Y-110231281D02*
X131487531Y-110235602D01*
X131487531Y-110235602D02*
X131472367Y-110239790D01*
X131472367Y-110239790D02*
X131457166Y-110243846D01*
X131457166Y-110243846D02*
X131441931Y-110247769D01*
X131441931Y-110247769D02*
X131426662Y-110251559D01*
X131426662Y-110251559D02*
X131411361Y-110255216D01*
X131411361Y-110255216D02*
X131396029Y-110258739D01*
X131396029Y-110258739D02*
X131380666Y-110262128D01*
X131380666Y-110262128D02*
X131365274Y-110265382D01*
X131365274Y-110265382D02*
X131349854Y-110268503D01*
X131349854Y-110268503D02*
X131334408Y-110271488D01*
X131334408Y-110271488D02*
X131318936Y-110274339D01*
X131318936Y-110274339D02*
X131303440Y-110277055D01*
X131303440Y-110277055D02*
X131287921Y-110279635D01*
X131287921Y-110279635D02*
X131272380Y-110282080D01*
X131272380Y-110282080D02*
X131256819Y-110284389D01*
X131256819Y-110284389D02*
X131241237Y-110286562D01*
X131241237Y-110286562D02*
X131225638Y-110288599D01*
X131225638Y-110288599D02*
X131210021Y-110290500D01*
X131210021Y-110290500D02*
X131194388Y-110292265D01*
X131194388Y-110292265D02*
X131178740Y-110293893D01*
X131178740Y-110293893D02*
X131163079Y-110295384D01*
X131163079Y-110295384D02*
X131147405Y-110296739D01*
X131147405Y-110296739D02*
X131131720Y-110297957D01*
X131131720Y-110297957D02*
X131116025Y-110299038D01*
X131116025Y-110299038D02*
X131100322Y-110299982D01*
X131100322Y-110299982D02*
X131084610Y-110300789D01*
X131084610Y-110300789D02*
X131068892Y-110301459D01*
X131068892Y-110301459D02*
X131053169Y-110301991D01*
X131053169Y-110301991D02*
X131037442Y-110302387D01*
X131037442Y-110302387D02*
X131021712Y-110302645D01*
X131021712Y-110302645D02*
X131005980Y-110302766D01*
X131005980Y-110302766D02*
X130990248Y-110302749D01*
X130990248Y-110302749D02*
X130974517Y-110302596D01*
X130974517Y-110302596D02*
X130958787Y-110302305D01*
X130958787Y-110302305D02*
X130943061Y-110301876D01*
X130943061Y-110301876D02*
X130927339Y-110301311D01*
X130927339Y-110301311D02*
X130911623Y-110300608D01*
X130911623Y-110300608D02*
X130895913Y-110299768D01*
X130895913Y-110299768D02*
X130880211Y-110298791D01*
X130880211Y-110298791D02*
X130864519Y-110297678D01*
X130864519Y-110297678D02*
X130848836Y-110296427D01*
X130848836Y-110296427D02*
X130833165Y-110295039D01*
X130833165Y-110295039D02*
X130817507Y-110293515D01*
X130817507Y-110293515D02*
X130801863Y-110291854D01*
X130801863Y-110291854D02*
X130786234Y-110290057D01*
X130786234Y-110290057D02*
X130770621Y-110288123D01*
X130770621Y-110288123D02*
X130755026Y-110286054D01*
X130755026Y-110286054D02*
X130739449Y-110283848D01*
X130739449Y-110283848D02*
X130723892Y-110281506D01*
X130723892Y-110281506D02*
X130708356Y-110279029D01*
X130708356Y-110279029D02*
X130692843Y-110276416D01*
X130692843Y-110276416D02*
X130677352Y-110273668D01*
X130677352Y-110273668D02*
X130661887Y-110270785D01*
X130661887Y-110270785D02*
X130646447Y-110267767D01*
X130646447Y-110267767D02*
X130631034Y-110264614D01*
X130631034Y-110264614D02*
X130615649Y-110261327D01*
X130615649Y-110261327D02*
X130600293Y-110257906D01*
X130600293Y-110257906D02*
X130584968Y-110254351D01*
X130584968Y-110254351D02*
X130569674Y-110250663D01*
X130569674Y-110250663D02*
X130554413Y-110246841D01*
X130554413Y-110246841D02*
X130539186Y-110242886D01*
X130539186Y-110242886D02*
X130523995Y-110238798D01*
X130523995Y-110238798D02*
X130508839Y-110234578D01*
X130508839Y-110234578D02*
X130493721Y-110230226D01*
X130493721Y-110230226D02*
X130478641Y-110225742D01*
X130478641Y-110225742D02*
X130463601Y-110221127D01*
X130463601Y-110221127D02*
X130448602Y-110216380D01*
X130448602Y-110216380D02*
X130433645Y-110211503D01*
X130433645Y-110211503D02*
X130418731Y-110206495D01*
X130418731Y-110206495D02*
X130403862Y-110201358D01*
X130403862Y-110201358D02*
X130389037Y-110196091D01*
X130389037Y-110196091D02*
X130374260Y-110190695D01*
X130374260Y-110190695D02*
X130359530Y-110185170D01*
X130359530Y-110185170D02*
X130344848Y-110179517D01*
X130344848Y-110179517D02*
X130330217Y-110173736D01*
X130330217Y-110173736D02*
X130315637Y-110167827D01*
X130315637Y-110167827D02*
X130301108Y-110161791D01*
X130301108Y-110161791D02*
X130286633Y-110155629D01*
X130286633Y-110155629D02*
X130272212Y-110149341D01*
X130272212Y-110149341D02*
X130257847Y-110142927D01*
X130257847Y-110142927D02*
X130243538Y-110136388D01*
X130243538Y-110136388D02*
X130229287Y-110129724D01*
X130229287Y-110129724D02*
X130215095Y-110122937D01*
X130215095Y-110122937D02*
X130200962Y-110116025D01*
X130200962Y-110116025D02*
X130186890Y-110108991D01*
X130186890Y-110108991D02*
X130172880Y-110101834D01*
X130172880Y-110101834D02*
X130158933Y-110094555D01*
X130158933Y-110094555D02*
X130145050Y-110087155D01*
X130145050Y-110087155D02*
X130131232Y-110079634D01*
X130131232Y-110079634D02*
X130117481Y-110071992D01*
X130117481Y-110071992D02*
X130103796Y-110064231D01*
X130103796Y-110064231D02*
X130090180Y-110056351D01*
X130090180Y-110056351D02*
X130076633Y-110048352D01*
X130076633Y-110048352D02*
X130063157Y-110040235D01*
X130063157Y-110040235D02*
X130049751Y-110032001D01*
X130049751Y-110032001D02*
X130036418Y-110023650D01*
X130036418Y-110023650D02*
X130023159Y-110015184D01*
X130023159Y-110015184D02*
X130009974Y-110006602D01*
X130009974Y-110006602D02*
X129996864Y-109997905D01*
X129996864Y-109997905D02*
X129983831Y-109989094D01*
X129983831Y-109989094D02*
X129970875Y-109980169D01*
X129970875Y-109980169D02*
X129957997Y-109971132D01*
X129957997Y-109971132D02*
X129945199Y-109961983D01*
X129945199Y-109961983D02*
X129934502Y-109954205D01*
X129413356Y-109355897D02*
X129394757Y-109320485D01*
X129197969Y-108551823D02*
X129197586Y-108536096D01*
X129197586Y-108536096D02*
X129197339Y-108520365D01*
X129197339Y-108520365D02*
X129197230Y-108504634D01*
X129197230Y-108504634D02*
X129197259Y-108488901D01*
X129197259Y-108488901D02*
X129197424Y-108473170D01*
X129197424Y-108473170D02*
X129197727Y-108457441D01*
X129197727Y-108457441D02*
X129198167Y-108441715D01*
X129198167Y-108441715D02*
X129198744Y-108425993D01*
X129198744Y-108425993D02*
X129199458Y-108410278D01*
X129199458Y-108410278D02*
X129200310Y-108394568D01*
X129200310Y-108394568D02*
X129201299Y-108378867D01*
X129201299Y-108378867D02*
X129202424Y-108363176D01*
X129202424Y-108363176D02*
X129203687Y-108347494D01*
X129203687Y-108347494D02*
X129205086Y-108331824D01*
X129205086Y-108331824D02*
X129206622Y-108316167D01*
X129206622Y-108316167D02*
X129208294Y-108300524D01*
X129208294Y-108300524D02*
X129210103Y-108284897D01*
X129210103Y-108284897D02*
X129212048Y-108269285D01*
X129212048Y-108269285D02*
X129214130Y-108253691D01*
X129214130Y-108253691D02*
X129216347Y-108238116D01*
X129216347Y-108238116D02*
X129218701Y-108222561D01*
X129218701Y-108222561D02*
X129221189Y-108207027D01*
X129221189Y-108207027D02*
X129223814Y-108191515D01*
X129223814Y-108191515D02*
X129226573Y-108176027D01*
X129226573Y-108176027D02*
X129229468Y-108160564D01*
X129229468Y-108160564D02*
X129232498Y-108145126D01*
X129232498Y-108145126D02*
X129235662Y-108129715D01*
X129235662Y-108129715D02*
X129238960Y-108114333D01*
X129238960Y-108114333D02*
X129242393Y-108098980D01*
X129242393Y-108098980D02*
X129245959Y-108083657D01*
X129245959Y-108083657D02*
X129249659Y-108068366D01*
X129249659Y-108068366D02*
X129253493Y-108053108D01*
X129253493Y-108053108D02*
X129257459Y-108037885D01*
X129257459Y-108037885D02*
X129261558Y-108022696D01*
X129261558Y-108022696D02*
X129265789Y-108007543D01*
X129265789Y-108007543D02*
X129270153Y-107992428D01*
X129270153Y-107992428D02*
X129274648Y-107977352D01*
X129274648Y-107977352D02*
X129279275Y-107962316D01*
X129279275Y-107962316D02*
X129284032Y-107947320D01*
X129284032Y-107947320D02*
X129288921Y-107932367D01*
X129288921Y-107932367D02*
X129293939Y-107917457D01*
X129293939Y-107917457D02*
X129299088Y-107902591D01*
X129299088Y-107902591D02*
X129304366Y-107887771D01*
X129304366Y-107887771D02*
X129309773Y-107872997D01*
X129309773Y-107872997D02*
X129315309Y-107858271D01*
X129315309Y-107858271D02*
X129320973Y-107843594D01*
X129320973Y-107843594D02*
X129326765Y-107828967D01*
X129326765Y-107828967D02*
X129332685Y-107814391D01*
X129332685Y-107814391D02*
X129338731Y-107799867D01*
X129338731Y-107799867D02*
X129344904Y-107785397D01*
X129344904Y-107785397D02*
X129351203Y-107770980D01*
X129351203Y-107770980D02*
X129357628Y-107756620D01*
X129357628Y-107756620D02*
X129364178Y-107742316D01*
X129364178Y-107742316D02*
X129370852Y-107728070D01*
X129370852Y-107728070D02*
X129377650Y-107713882D01*
X129377650Y-107713882D02*
X129384572Y-107699755D01*
X129384572Y-107699755D02*
X129391617Y-107685688D01*
X129391617Y-107685688D02*
X129398784Y-107671684D01*
X129398784Y-107671684D02*
X129406074Y-107657742D01*
X129406074Y-107657742D02*
X129413484Y-107643865D01*
X129413484Y-107643865D02*
X129421016Y-107630053D01*
X129421016Y-107630053D02*
X129428667Y-107616307D01*
X129428667Y-107616307D02*
X129436439Y-107602628D01*
X129436439Y-107602628D02*
X129444329Y-107589018D01*
X129444329Y-107589018D02*
X129452338Y-107575477D01*
X129452338Y-107575477D02*
X129460465Y-107562006D01*
X129460465Y-107562006D02*
X129468709Y-107548607D01*
X129468709Y-107548607D02*
X129477070Y-107535280D01*
X129477070Y-107535280D02*
X129485547Y-107522027D01*
X129485547Y-107522027D02*
X129494138Y-107508849D01*
X129494138Y-107508849D02*
X129502845Y-107495745D01*
X129502845Y-107495745D02*
X129511666Y-107482719D01*
X129511666Y-107482719D02*
X129520600Y-107469769D01*
X129520600Y-107469769D02*
X129529647Y-107456899D01*
X129529647Y-107456899D02*
X129538805Y-107444107D01*
X129538805Y-107444107D02*
X129548075Y-107431396D01*
X129548075Y-107431396D02*
X129557456Y-107418767D01*
X129557456Y-107418767D02*
X129566946Y-107406219D01*
X129566946Y-107406219D02*
X129576545Y-107393755D01*
X129576545Y-107393755D02*
X129586253Y-107381376D01*
X129586253Y-107381376D02*
X129596069Y-107369081D01*
X129596069Y-107369081D02*
X129605991Y-107356873D01*
X129605991Y-107356873D02*
X129616020Y-107344751D01*
X129616020Y-107344751D02*
X129626154Y-107332718D01*
X129626154Y-107332718D02*
X129636393Y-107320774D01*
X129636393Y-107320774D02*
X129646735Y-107308919D01*
X129646735Y-107308919D02*
X129657181Y-107297155D01*
X129657181Y-107297155D02*
X129667728Y-107285483D01*
X129667728Y-107285483D02*
X129678378Y-107273903D01*
X129678378Y-107273903D02*
X129689128Y-107262416D01*
X129689128Y-107262416D02*
X129699977Y-107251024D01*
X129699977Y-107251024D02*
X129710926Y-107239727D01*
X129710926Y-107239727D02*
X129721973Y-107228526D01*
X129721973Y-107228526D02*
X129733117Y-107217421D01*
X129733117Y-107217421D02*
X129744358Y-107206415D01*
X129744358Y-107206415D02*
X129755694Y-107195507D01*
X129755694Y-107195507D02*
X129767125Y-107184698D01*
X129767125Y-107184698D02*
X129778650Y-107173989D01*
X129778650Y-107173989D02*
X129790268Y-107163381D01*
X129790268Y-107163381D02*
X129801978Y-107152876D01*
X129801978Y-107152876D02*
X129813780Y-107142472D01*
X129813780Y-107142472D02*
X129825671Y-107132172D01*
X129825671Y-107132172D02*
X129837652Y-107121977D01*
X129837652Y-107121977D02*
X129849722Y-107111886D01*
X129849722Y-107111886D02*
X129861879Y-107101901D01*
X129861879Y-107101901D02*
X129874123Y-107092022D01*
X129874123Y-107092022D02*
X129886453Y-107082251D01*
X129886453Y-107082251D02*
X129898867Y-107072587D01*
X129898867Y-107072587D02*
X129911366Y-107063033D01*
X129911366Y-107063033D02*
X129923947Y-107053587D01*
X129923947Y-107053587D02*
X129936610Y-107044252D01*
X129936610Y-107044252D02*
X129949354Y-107035028D01*
X129949354Y-107035028D02*
X129962178Y-107025915D01*
X129962178Y-107025915D02*
X129975081Y-107016915D01*
X129975081Y-107016915D02*
X129988063Y-107008027D01*
X129988063Y-107008027D02*
X130001121Y-106999253D01*
X130001121Y-106999253D02*
X130014255Y-106990594D01*
X130014255Y-106990594D02*
X130027465Y-106982049D01*
X130027465Y-106982049D02*
X130040748Y-106973620D01*
X130040748Y-106973620D02*
X130054105Y-106965307D01*
X130054105Y-106965307D02*
X130067533Y-106957111D01*
X130067533Y-106957111D02*
X130081033Y-106949033D01*
X130081033Y-106949033D02*
X130094602Y-106941072D01*
X130094602Y-106941072D02*
X130108241Y-106933231D01*
X130108241Y-106933231D02*
X130121947Y-106925509D01*
X130121947Y-106925509D02*
X130135721Y-106917906D01*
X130135721Y-106917906D02*
X130149560Y-106910424D01*
X130149560Y-106910424D02*
X130163464Y-106903063D01*
X130163464Y-106903063D02*
X130177431Y-106895824D01*
X130177431Y-106895824D02*
X130191461Y-106888707D01*
X130191461Y-106888707D02*
X130205553Y-106881713D01*
X130205553Y-106881713D02*
X130219705Y-106874841D01*
X130219705Y-106874841D02*
X130233917Y-106868094D01*
X130233917Y-106868094D02*
X130248187Y-106861471D01*
X130248187Y-106861471D02*
X130262515Y-106854973D01*
X130262515Y-106854973D02*
X130276898Y-106848600D01*
X130276898Y-106848600D02*
X130291337Y-106842352D01*
X130291337Y-106842352D02*
X130305829Y-106836231D01*
X130305829Y-106836231D02*
X130320374Y-106830237D01*
X130320374Y-106830237D02*
X130332643Y-106825296D01*
X131116296Y-106700979D02*
X131156181Y-106704002D01*
X131912144Y-106945010D02*
X131925679Y-106953029D01*
X131925679Y-106953029D02*
X131939144Y-106961166D01*
X131939144Y-106961166D02*
X131952537Y-106969420D01*
X131952537Y-106969420D02*
X131965857Y-106977791D01*
X131965857Y-106977791D02*
X131979104Y-106986278D01*
X131979104Y-106986278D02*
X131992276Y-106994879D01*
X131992276Y-106994879D02*
X132005373Y-107003596D01*
X132005373Y-107003596D02*
X132018393Y-107012426D01*
X132018393Y-107012426D02*
X132031336Y-107021370D01*
X132031336Y-107021370D02*
X132044200Y-107030426D01*
X132044200Y-107030426D02*
X132056984Y-107039594D01*
X132056984Y-107039594D02*
X132069688Y-107048874D01*
X132069688Y-107048874D02*
X132082311Y-107058264D01*
X132082311Y-107058264D02*
X132094851Y-107067763D01*
X132094851Y-107067763D02*
X132107308Y-107077372D01*
X132107308Y-107077372D02*
X132119680Y-107087089D01*
X132119680Y-107087089D02*
X132131967Y-107096914D01*
X132131967Y-107096914D02*
X132144168Y-107106846D01*
X132144168Y-107106846D02*
X132156282Y-107116883D01*
X132156282Y-107116883D02*
X132168308Y-107127026D01*
X132168308Y-107127026D02*
X132180245Y-107137274D01*
X132180245Y-107137274D02*
X132192092Y-107147625D01*
X132192092Y-107147625D02*
X132203848Y-107158080D01*
X132203848Y-107158080D02*
X132215512Y-107168636D01*
X132215512Y-107168636D02*
X132227084Y-107179294D01*
X132227084Y-107179294D02*
X132238563Y-107190052D01*
X132238563Y-107190052D02*
X132249947Y-107200911D01*
X132249947Y-107200911D02*
X132261236Y-107211868D01*
X132261236Y-107211868D02*
X132272429Y-107222923D01*
X132272429Y-107222923D02*
X132283525Y-107234076D01*
X132283525Y-107234076D02*
X132294523Y-107245325D01*
X132294523Y-107245325D02*
X132305423Y-107256669D01*
X132305423Y-107256669D02*
X132316223Y-107268108D01*
X132316223Y-107268108D02*
X132326923Y-107279641D01*
X132326923Y-107279641D02*
X132337522Y-107291267D01*
X132337522Y-107291267D02*
X132348019Y-107302985D01*
X132348019Y-107302985D02*
X132358413Y-107314794D01*
X132358413Y-107314794D02*
X132368704Y-107326694D01*
X132368704Y-107326694D02*
X132378891Y-107338682D01*
X132378891Y-107338682D02*
X132388973Y-107350759D01*
X132388973Y-107350759D02*
X132398949Y-107362924D01*
X132398949Y-107362924D02*
X132408819Y-107375175D01*
X132408819Y-107375175D02*
X132418581Y-107387512D01*
X132418581Y-107387512D02*
X132428235Y-107399934D01*
X132428235Y-107399934D02*
X132437780Y-107412439D01*
X132437780Y-107412439D02*
X132447216Y-107425028D01*
X132447216Y-107425028D02*
X132456542Y-107437698D01*
X132456542Y-107437698D02*
X132465757Y-107450449D01*
X132465757Y-107450449D02*
X132474860Y-107463280D01*
X132474860Y-107463280D02*
X132483851Y-107476190D01*
X132483851Y-107476190D02*
X132492728Y-107489177D01*
X132492728Y-107489177D02*
X132501492Y-107502242D01*
X132501492Y-107502242D02*
X132510142Y-107515383D01*
X132510142Y-107515383D02*
X132518677Y-107528599D01*
X132518677Y-107528599D02*
X132527096Y-107541889D01*
X132527096Y-107541889D02*
X132535399Y-107555251D01*
X132535399Y-107555251D02*
X132543585Y-107568686D01*
X132543585Y-107568686D02*
X132551653Y-107582192D01*
X132551653Y-107582192D02*
X132559604Y-107595767D01*
X132559604Y-107595767D02*
X132567435Y-107609412D01*
X132567435Y-107609412D02*
X132575147Y-107623124D01*
X132575147Y-107623124D02*
X132582739Y-107636903D01*
X132582739Y-107636903D02*
X132590211Y-107650747D01*
X132590211Y-107650747D02*
X132597561Y-107664657D01*
X132597561Y-107664657D02*
X132604790Y-107678630D01*
X132604790Y-107678630D02*
X132611897Y-107692665D01*
X132611897Y-107692665D02*
X132618880Y-107706762D01*
X132618880Y-107706762D02*
X132625741Y-107720920D01*
X132625741Y-107720920D02*
X132632478Y-107735137D01*
X132632478Y-107735137D02*
X132639090Y-107749412D01*
X132639090Y-107749412D02*
X132645578Y-107763744D01*
X132645578Y-107763744D02*
X132651940Y-107778132D01*
X132651940Y-107778132D02*
X132658177Y-107792575D01*
X132658177Y-107792575D02*
X132664287Y-107807072D01*
X132664287Y-107807072D02*
X132670270Y-107821622D01*
X132670270Y-107821622D02*
X132676127Y-107836224D01*
X132676127Y-107836224D02*
X132681855Y-107850876D01*
X132681855Y-107850876D02*
X132687456Y-107865577D01*
X132687456Y-107865577D02*
X132692928Y-107880327D01*
X132692928Y-107880327D02*
X132698271Y-107895124D01*
X132698271Y-107895124D02*
X132703485Y-107909967D01*
X132703485Y-107909967D02*
X132708569Y-107924855D01*
X132708569Y-107924855D02*
X132713523Y-107939787D01*
X132713523Y-107939787D02*
X132718346Y-107954761D01*
X132718346Y-107954761D02*
X132723039Y-107969777D01*
X132723039Y-107969777D02*
X132727600Y-107984833D01*
X132727600Y-107984833D02*
X132732030Y-107999929D01*
X132732030Y-107999929D02*
X132736328Y-108015063D01*
X132736328Y-108015063D02*
X132740494Y-108030233D01*
X132740494Y-108030233D02*
X132744527Y-108045440D01*
X132744527Y-108045440D02*
X132748427Y-108060681D01*
X132748427Y-108060681D02*
X132752195Y-108075955D01*
X132752195Y-108075955D02*
X132755828Y-108091262D01*
X132755828Y-108091262D02*
X132759328Y-108106600D01*
X132759328Y-108106600D02*
X132762694Y-108121968D01*
X132762694Y-108121968D02*
X132765926Y-108137364D01*
X132765926Y-108137364D02*
X132769023Y-108152788D01*
X132769023Y-108152788D02*
X132771986Y-108168239D01*
X132771986Y-108168239D02*
X132774814Y-108183715D01*
X132774814Y-108183715D02*
X132777506Y-108199215D01*
X132777506Y-108199215D02*
X132780063Y-108214738D01*
X132780063Y-108214738D02*
X132782485Y-108230283D01*
X132782485Y-108230283D02*
X132784771Y-108245848D01*
X132784771Y-108245848D02*
X132786921Y-108261432D01*
X132786921Y-108261432D02*
X132788934Y-108277035D01*
X132788934Y-108277035D02*
X132790812Y-108292655D01*
X132790812Y-108292655D02*
X132792553Y-108308290D01*
X132792553Y-108308290D02*
X132794158Y-108323940D01*
X132794158Y-108323940D02*
X132795626Y-108339604D01*
X132795626Y-108339604D02*
X132796957Y-108355279D01*
X132796957Y-108355279D02*
X132798152Y-108370966D01*
X132798152Y-108370966D02*
X132799209Y-108386663D01*
X132799209Y-108386663D02*
X132800130Y-108402368D01*
X132800130Y-108402368D02*
X132800913Y-108418081D01*
X132800913Y-108418081D02*
X132801560Y-108433799D01*
X132801560Y-108433799D02*
X132802069Y-108449523D01*
X132802069Y-108449523D02*
X132802441Y-108465251D01*
X132802441Y-108465251D02*
X132802675Y-108480981D01*
X132802675Y-108480981D02*
X132802773Y-108496713D01*
X132802773Y-108496713D02*
X132802733Y-108512445D01*
X132802733Y-108512445D02*
X132802555Y-108528176D01*
X132802555Y-108528176D02*
X132802241Y-108543905D01*
X132802241Y-108543905D02*
X132801789Y-108559631D01*
X132801789Y-108559631D02*
X132801200Y-108575352D01*
X132801200Y-108575352D02*
X132800474Y-108591068D01*
X132800474Y-108591068D02*
X132799611Y-108606776D01*
X132799611Y-108606776D02*
X132798610Y-108622476D01*
X132798610Y-108622476D02*
X132797473Y-108638167D01*
X132797473Y-108638167D02*
X132796199Y-108653848D01*
X132796199Y-108653848D02*
X132794788Y-108669516D01*
X132794788Y-108669516D02*
X132793240Y-108685172D01*
X132793240Y-108685172D02*
X132791556Y-108700814D01*
X132791556Y-108700814D02*
X132789736Y-108716440D01*
X132789736Y-108716440D02*
X132787779Y-108732050D01*
X132787779Y-108732050D02*
X132785686Y-108747643D01*
X132785686Y-108747643D02*
X132783457Y-108763216D01*
X132783457Y-108763216D02*
X132781092Y-108778769D01*
X132781092Y-108778769D02*
X132778591Y-108794302D01*
X132778591Y-108794302D02*
X132775955Y-108809811D01*
X132775955Y-108809811D02*
X132773634Y-108822832D01*
X132463242Y-109553053D02*
X132439519Y-109585258D01*
X170000000Y-47500000D02*
X169986872Y-47508669D01*
X169986872Y-47508669D02*
X169973669Y-47517224D01*
X169973669Y-47517224D02*
X169960392Y-47525663D01*
X169960392Y-47525663D02*
X169947042Y-47533986D01*
X169947042Y-47533986D02*
X169933619Y-47542192D01*
X169933619Y-47542192D02*
X169920126Y-47550280D01*
X169920126Y-47550280D02*
X169906562Y-47558251D01*
X169906562Y-47558251D02*
X169892929Y-47566103D01*
X169892929Y-47566103D02*
X169879229Y-47573835D01*
X169879229Y-47573835D02*
X169865461Y-47581448D01*
X169865461Y-47581448D02*
X169851628Y-47588940D01*
X169851628Y-47588940D02*
X169837729Y-47596311D01*
X169837729Y-47596311D02*
X169823767Y-47603561D01*
X169823767Y-47603561D02*
X169809742Y-47610689D01*
X169809742Y-47610689D02*
X169795656Y-47617693D01*
X169795656Y-47617693D02*
X169781508Y-47624575D01*
X169781508Y-47624575D02*
X169767302Y-47631333D01*
X169767302Y-47631333D02*
X169753037Y-47637967D01*
X169753037Y-47637967D02*
X169738714Y-47644476D01*
X169738714Y-47644476D02*
X169724335Y-47650860D01*
X169724335Y-47650860D02*
X169709902Y-47657118D01*
X169709902Y-47657118D02*
X169695414Y-47663250D01*
X169695414Y-47663250D02*
X169680873Y-47669255D01*
X169680873Y-47669255D02*
X169666280Y-47675133D01*
X169666280Y-47675133D02*
X169651637Y-47680884D01*
X169651637Y-47680884D02*
X169636943Y-47686506D01*
X169636943Y-47686506D02*
X169622202Y-47692000D01*
X169622202Y-47692000D02*
X169607413Y-47697365D01*
X169607413Y-47697365D02*
X169592578Y-47702601D01*
X169592578Y-47702601D02*
X169577697Y-47707708D01*
X169577697Y-47707708D02*
X169562773Y-47712684D01*
X169562773Y-47712684D02*
X169547806Y-47717530D01*
X169547806Y-47717530D02*
X169532797Y-47722245D01*
X169532797Y-47722245D02*
X169517747Y-47726829D01*
X169517747Y-47726829D02*
X169502658Y-47731281D01*
X169502658Y-47731281D02*
X169487531Y-47735602D01*
X169487531Y-47735602D02*
X169472367Y-47739790D01*
X169472367Y-47739790D02*
X169457166Y-47743846D01*
X169457166Y-47743846D02*
X169441931Y-47747769D01*
X169441931Y-47747769D02*
X169426662Y-47751559D01*
X169426662Y-47751559D02*
X169411361Y-47755216D01*
X169411361Y-47755216D02*
X169396029Y-47758739D01*
X169396029Y-47758739D02*
X169380666Y-47762128D01*
X169380666Y-47762128D02*
X169365274Y-47765382D01*
X169365274Y-47765382D02*
X169349854Y-47768503D01*
X169349854Y-47768503D02*
X169334408Y-47771488D01*
X169334408Y-47771488D02*
X169318936Y-47774339D01*
X169318936Y-47774339D02*
X169303440Y-47777055D01*
X169303440Y-47777055D02*
X169287921Y-47779635D01*
X169287921Y-47779635D02*
X169272380Y-47782080D01*
X169272380Y-47782080D02*
X169256819Y-47784389D01*
X169256819Y-47784389D02*
X169241237Y-47786562D01*
X169241237Y-47786562D02*
X169225638Y-47788599D01*
X169225638Y-47788599D02*
X169210021Y-47790500D01*
X169210021Y-47790500D02*
X169194388Y-47792265D01*
X169194388Y-47792265D02*
X169178740Y-47793893D01*
X169178740Y-47793893D02*
X169163079Y-47795384D01*
X169163079Y-47795384D02*
X169147405Y-47796739D01*
X169147405Y-47796739D02*
X169131720Y-47797957D01*
X169131720Y-47797957D02*
X169116025Y-47799038D01*
X169116025Y-47799038D02*
X169100322Y-47799982D01*
X169100322Y-47799982D02*
X169084610Y-47800789D01*
X169084610Y-47800789D02*
X169068892Y-47801459D01*
X169068892Y-47801459D02*
X169053169Y-47801991D01*
X169053169Y-47801991D02*
X169037442Y-47802387D01*
X169037442Y-47802387D02*
X169021712Y-47802645D01*
X169021712Y-47802645D02*
X169005980Y-47802766D01*
X169005980Y-47802766D02*
X168990248Y-47802749D01*
X168990248Y-47802749D02*
X168974517Y-47802596D01*
X168974517Y-47802596D02*
X168958787Y-47802305D01*
X168958787Y-47802305D02*
X168943061Y-47801876D01*
X168943061Y-47801876D02*
X168927339Y-47801311D01*
X168927339Y-47801311D02*
X168911623Y-47800608D01*
X168911623Y-47800608D02*
X168895913Y-47799768D01*
X168895913Y-47799768D02*
X168880211Y-47798791D01*
X168880211Y-47798791D02*
X168864519Y-47797678D01*
X168864519Y-47797678D02*
X168848836Y-47796427D01*
X168848836Y-47796427D02*
X168833165Y-47795039D01*
X168833165Y-47795039D02*
X168817507Y-47793515D01*
X168817507Y-47793515D02*
X168801863Y-47791854D01*
X168801863Y-47791854D02*
X168786234Y-47790057D01*
X168786234Y-47790057D02*
X168770621Y-47788123D01*
X168770621Y-47788123D02*
X168755026Y-47786054D01*
X168755026Y-47786054D02*
X168739449Y-47783848D01*
X168739449Y-47783848D02*
X168723892Y-47781506D01*
X168723892Y-47781506D02*
X168708356Y-47779029D01*
X168708356Y-47779029D02*
X168692843Y-47776416D01*
X168692843Y-47776416D02*
X168677352Y-47773668D01*
X168677352Y-47773668D02*
X168661887Y-47770785D01*
X168661887Y-47770785D02*
X168646447Y-47767767D01*
X168646447Y-47767767D02*
X168631034Y-47764614D01*
X168631034Y-47764614D02*
X168615649Y-47761327D01*
X168615649Y-47761327D02*
X168600293Y-47757906D01*
X168600293Y-47757906D02*
X168584968Y-47754351D01*
X168584968Y-47754351D02*
X168569674Y-47750663D01*
X168569674Y-47750663D02*
X168554413Y-47746841D01*
X168554413Y-47746841D02*
X168539186Y-47742886D01*
X168539186Y-47742886D02*
X168523995Y-47738798D01*
X168523995Y-47738798D02*
X168508839Y-47734578D01*
X168508839Y-47734578D02*
X168493721Y-47730226D01*
X168493721Y-47730226D02*
X168478641Y-47725742D01*
X168478641Y-47725742D02*
X168463601Y-47721127D01*
X168463601Y-47721127D02*
X168448602Y-47716380D01*
X168448602Y-47716380D02*
X168433645Y-47711503D01*
X168433645Y-47711503D02*
X168418731Y-47706495D01*
X168418731Y-47706495D02*
X168403862Y-47701358D01*
X168403862Y-47701358D02*
X168389037Y-47696091D01*
X168389037Y-47696091D02*
X168374260Y-47690695D01*
X168374260Y-47690695D02*
X168359530Y-47685170D01*
X168359530Y-47685170D02*
X168344848Y-47679517D01*
X168344848Y-47679517D02*
X168330217Y-47673736D01*
X168330217Y-47673736D02*
X168315637Y-47667827D01*
X168315637Y-47667827D02*
X168301108Y-47661791D01*
X168301108Y-47661791D02*
X168286633Y-47655629D01*
X168286633Y-47655629D02*
X168272212Y-47649341D01*
X168272212Y-47649341D02*
X168257847Y-47642927D01*
X168257847Y-47642927D02*
X168243538Y-47636388D01*
X168243538Y-47636388D02*
X168229287Y-47629724D01*
X168229287Y-47629724D02*
X168215095Y-47622937D01*
X168215095Y-47622937D02*
X168200962Y-47616025D01*
X168200962Y-47616025D02*
X168186890Y-47608991D01*
X168186890Y-47608991D02*
X168172880Y-47601834D01*
X168172880Y-47601834D02*
X168158933Y-47594555D01*
X168158933Y-47594555D02*
X168145050Y-47587155D01*
X168145050Y-47587155D02*
X168131232Y-47579634D01*
X168131232Y-47579634D02*
X168117481Y-47571992D01*
X168117481Y-47571992D02*
X168103796Y-47564231D01*
X168103796Y-47564231D02*
X168090180Y-47556351D01*
X168090180Y-47556351D02*
X168076633Y-47548352D01*
X168076633Y-47548352D02*
X168063157Y-47540235D01*
X168063157Y-47540235D02*
X168049751Y-47532001D01*
X168049751Y-47532001D02*
X168036418Y-47523650D01*
X168036418Y-47523650D02*
X168023159Y-47515184D01*
X168023159Y-47515184D02*
X168009974Y-47506602D01*
X168009974Y-47506602D02*
X167996864Y-47497905D01*
X167996864Y-47497905D02*
X167983831Y-47489094D01*
X167983831Y-47489094D02*
X167970875Y-47480169D01*
X167970875Y-47480169D02*
X167957997Y-47471132D01*
X167957997Y-47471132D02*
X167945199Y-47461983D01*
X167945199Y-47461983D02*
X167934502Y-47454205D01*
X167413356Y-46855897D02*
X167394757Y-46820485D01*
X167197969Y-46051823D02*
X167197586Y-46036096D01*
X167197586Y-46036096D02*
X167197339Y-46020365D01*
X167197339Y-46020365D02*
X167197230Y-46004634D01*
X167197230Y-46004634D02*
X167197259Y-45988901D01*
X167197259Y-45988901D02*
X167197424Y-45973170D01*
X167197424Y-45973170D02*
X167197727Y-45957441D01*
X167197727Y-45957441D02*
X167198167Y-45941715D01*
X167198167Y-45941715D02*
X167198744Y-45925993D01*
X167198744Y-45925993D02*
X167199458Y-45910278D01*
X167199458Y-45910278D02*
X167200310Y-45894568D01*
X167200310Y-45894568D02*
X167201299Y-45878867D01*
X167201299Y-45878867D02*
X167202424Y-45863176D01*
X167202424Y-45863176D02*
X167203687Y-45847494D01*
X167203687Y-45847494D02*
X167205086Y-45831824D01*
X167205086Y-45831824D02*
X167206622Y-45816167D01*
X167206622Y-45816167D02*
X167208294Y-45800524D01*
X167208294Y-45800524D02*
X167210103Y-45784897D01*
X167210103Y-45784897D02*
X167212048Y-45769285D01*
X167212048Y-45769285D02*
X167214130Y-45753691D01*
X167214130Y-45753691D02*
X167216347Y-45738116D01*
X167216347Y-45738116D02*
X167218701Y-45722561D01*
X167218701Y-45722561D02*
X167221189Y-45707027D01*
X167221189Y-45707027D02*
X167223814Y-45691515D01*
X167223814Y-45691515D02*
X167226573Y-45676027D01*
X167226573Y-45676027D02*
X167229468Y-45660564D01*
X167229468Y-45660564D02*
X167232498Y-45645126D01*
X167232498Y-45645126D02*
X167235662Y-45629715D01*
X167235662Y-45629715D02*
X167238960Y-45614333D01*
X167238960Y-45614333D02*
X167242393Y-45598980D01*
X167242393Y-45598980D02*
X167245959Y-45583657D01*
X167245959Y-45583657D02*
X167249659Y-45568366D01*
X167249659Y-45568366D02*
X167253493Y-45553108D01*
X167253493Y-45553108D02*
X167257459Y-45537885D01*
X167257459Y-45537885D02*
X167261558Y-45522696D01*
X167261558Y-45522696D02*
X167265789Y-45507543D01*
X167265789Y-45507543D02*
X167270153Y-45492428D01*
X167270153Y-45492428D02*
X167274648Y-45477352D01*
X167274648Y-45477352D02*
X167279275Y-45462316D01*
X167279275Y-45462316D02*
X167284032Y-45447320D01*
X167284032Y-45447320D02*
X167288921Y-45432367D01*
X167288921Y-45432367D02*
X167293939Y-45417457D01*
X167293939Y-45417457D02*
X167299088Y-45402591D01*
X167299088Y-45402591D02*
X167304366Y-45387771D01*
X167304366Y-45387771D02*
X167309773Y-45372997D01*
X167309773Y-45372997D02*
X167315309Y-45358271D01*
X167315309Y-45358271D02*
X167320973Y-45343594D01*
X167320973Y-45343594D02*
X167326765Y-45328967D01*
X167326765Y-45328967D02*
X167332685Y-45314391D01*
X167332685Y-45314391D02*
X167338731Y-45299867D01*
X167338731Y-45299867D02*
X167344904Y-45285397D01*
X167344904Y-45285397D02*
X167351203Y-45270980D01*
X167351203Y-45270980D02*
X167357628Y-45256620D01*
X167357628Y-45256620D02*
X167364178Y-45242316D01*
X167364178Y-45242316D02*
X167370852Y-45228070D01*
X167370852Y-45228070D02*
X167377650Y-45213882D01*
X167377650Y-45213882D02*
X167384572Y-45199755D01*
X167384572Y-45199755D02*
X167391617Y-45185688D01*
X167391617Y-45185688D02*
X167398784Y-45171684D01*
X167398784Y-45171684D02*
X167406074Y-45157742D01*
X167406074Y-45157742D02*
X167413484Y-45143865D01*
X167413484Y-45143865D02*
X167421016Y-45130053D01*
X167421016Y-45130053D02*
X167428667Y-45116307D01*
X167428667Y-45116307D02*
X167436439Y-45102628D01*
X167436439Y-45102628D02*
X167444329Y-45089018D01*
X167444329Y-45089018D02*
X167452338Y-45075477D01*
X167452338Y-45075477D02*
X167460465Y-45062006D01*
X167460465Y-45062006D02*
X167468709Y-45048607D01*
X167468709Y-45048607D02*
X167477070Y-45035280D01*
X167477070Y-45035280D02*
X167485547Y-45022027D01*
X167485547Y-45022027D02*
X167494138Y-45008849D01*
X167494138Y-45008849D02*
X167502845Y-44995745D01*
X167502845Y-44995745D02*
X167511666Y-44982719D01*
X167511666Y-44982719D02*
X167520600Y-44969769D01*
X167520600Y-44969769D02*
X167529647Y-44956899D01*
X167529647Y-44956899D02*
X167538805Y-44944107D01*
X167538805Y-44944107D02*
X167548075Y-44931396D01*
X167548075Y-44931396D02*
X167557456Y-44918767D01*
X167557456Y-44918767D02*
X167566946Y-44906219D01*
X167566946Y-44906219D02*
X167576545Y-44893755D01*
X167576545Y-44893755D02*
X167586253Y-44881376D01*
X167586253Y-44881376D02*
X167596069Y-44869081D01*
X167596069Y-44869081D02*
X167605991Y-44856873D01*
X167605991Y-44856873D02*
X167616020Y-44844751D01*
X167616020Y-44844751D02*
X167626154Y-44832718D01*
X167626154Y-44832718D02*
X167636393Y-44820774D01*
X167636393Y-44820774D02*
X167646735Y-44808919D01*
X167646735Y-44808919D02*
X167657181Y-44797155D01*
X167657181Y-44797155D02*
X167667728Y-44785483D01*
X167667728Y-44785483D02*
X167678378Y-44773903D01*
X167678378Y-44773903D02*
X167689128Y-44762416D01*
X167689128Y-44762416D02*
X167699977Y-44751024D01*
X167699977Y-44751024D02*
X167710926Y-44739727D01*
X167710926Y-44739727D02*
X167721973Y-44728526D01*
X167721973Y-44728526D02*
X167733117Y-44717421D01*
X167733117Y-44717421D02*
X167744358Y-44706415D01*
X167744358Y-44706415D02*
X167755694Y-44695507D01*
X167755694Y-44695507D02*
X167767125Y-44684698D01*
X167767125Y-44684698D02*
X167778650Y-44673989D01*
X167778650Y-44673989D02*
X167790268Y-44663381D01*
X167790268Y-44663381D02*
X167801978Y-44652876D01*
X167801978Y-44652876D02*
X167813780Y-44642472D01*
X167813780Y-44642472D02*
X167825671Y-44632172D01*
X167825671Y-44632172D02*
X167837652Y-44621977D01*
X167837652Y-44621977D02*
X167849722Y-44611886D01*
X167849722Y-44611886D02*
X167861879Y-44601901D01*
X167861879Y-44601901D02*
X167874123Y-44592022D01*
X167874123Y-44592022D02*
X167886453Y-44582251D01*
X167886453Y-44582251D02*
X167898867Y-44572587D01*
X167898867Y-44572587D02*
X167911366Y-44563033D01*
X167911366Y-44563033D02*
X167923947Y-44553587D01*
X167923947Y-44553587D02*
X167936610Y-44544252D01*
X167936610Y-44544252D02*
X167949354Y-44535028D01*
X167949354Y-44535028D02*
X167962178Y-44525915D01*
X167962178Y-44525915D02*
X167975081Y-44516915D01*
X167975081Y-44516915D02*
X167988063Y-44508027D01*
X167988063Y-44508027D02*
X168001121Y-44499253D01*
X168001121Y-44499253D02*
X168014255Y-44490594D01*
X168014255Y-44490594D02*
X168027465Y-44482049D01*
X168027465Y-44482049D02*
X168040748Y-44473620D01*
X168040748Y-44473620D02*
X168054105Y-44465307D01*
X168054105Y-44465307D02*
X168067533Y-44457111D01*
X168067533Y-44457111D02*
X168081033Y-44449033D01*
X168081033Y-44449033D02*
X168094602Y-44441072D01*
X168094602Y-44441072D02*
X168108241Y-44433231D01*
X168108241Y-44433231D02*
X168121947Y-44425509D01*
X168121947Y-44425509D02*
X168135721Y-44417906D01*
X168135721Y-44417906D02*
X168149560Y-44410424D01*
X168149560Y-44410424D02*
X168163464Y-44403063D01*
X168163464Y-44403063D02*
X168177431Y-44395824D01*
X168177431Y-44395824D02*
X168191461Y-44388707D01*
X168191461Y-44388707D02*
X168205553Y-44381713D01*
X168205553Y-44381713D02*
X168219705Y-44374841D01*
X168219705Y-44374841D02*
X168233917Y-44368094D01*
X168233917Y-44368094D02*
X168248187Y-44361471D01*
X168248187Y-44361471D02*
X168262515Y-44354973D01*
X168262515Y-44354973D02*
X168276898Y-44348600D01*
X168276898Y-44348600D02*
X168291337Y-44342352D01*
X168291337Y-44342352D02*
X168305829Y-44336231D01*
X168305829Y-44336231D02*
X168320374Y-44330237D01*
X168320374Y-44330237D02*
X168332643Y-44325296D01*
X169116296Y-44200979D02*
X169156181Y-44204002D01*
X169912144Y-44445010D02*
X169925679Y-44453029D01*
X169925679Y-44453029D02*
X169939144Y-44461166D01*
X169939144Y-44461166D02*
X169952537Y-44469420D01*
X169952537Y-44469420D02*
X169965857Y-44477791D01*
X169965857Y-44477791D02*
X169979104Y-44486278D01*
X169979104Y-44486278D02*
X169992276Y-44494879D01*
X169992276Y-44494879D02*
X170005373Y-44503596D01*
X170005373Y-44503596D02*
X170018393Y-44512426D01*
X170018393Y-44512426D02*
X170031336Y-44521370D01*
X170031336Y-44521370D02*
X170044200Y-44530426D01*
X170044200Y-44530426D02*
X170056984Y-44539594D01*
X170056984Y-44539594D02*
X170069688Y-44548874D01*
X170069688Y-44548874D02*
X170082311Y-44558264D01*
X170082311Y-44558264D02*
X170094851Y-44567763D01*
X170094851Y-44567763D02*
X170107308Y-44577372D01*
X170107308Y-44577372D02*
X170119680Y-44587089D01*
X170119680Y-44587089D02*
X170131967Y-44596914D01*
X170131967Y-44596914D02*
X170144168Y-44606846D01*
X170144168Y-44606846D02*
X170156282Y-44616883D01*
X170156282Y-44616883D02*
X170168308Y-44627026D01*
X170168308Y-44627026D02*
X170180245Y-44637274D01*
X170180245Y-44637274D02*
X170192092Y-44647625D01*
X170192092Y-44647625D02*
X170203848Y-44658080D01*
X170203848Y-44658080D02*
X170215512Y-44668636D01*
X170215512Y-44668636D02*
X170227084Y-44679294D01*
X170227084Y-44679294D02*
X170238563Y-44690052D01*
X170238563Y-44690052D02*
X170249947Y-44700911D01*
X170249947Y-44700911D02*
X170261236Y-44711868D01*
X170261236Y-44711868D02*
X170272429Y-44722923D01*
X170272429Y-44722923D02*
X170283525Y-44734076D01*
X170283525Y-44734076D02*
X170294523Y-44745325D01*
X170294523Y-44745325D02*
X170305423Y-44756669D01*
X170305423Y-44756669D02*
X170316223Y-44768108D01*
X170316223Y-44768108D02*
X170326923Y-44779641D01*
X170326923Y-44779641D02*
X170337522Y-44791267D01*
X170337522Y-44791267D02*
X170348019Y-44802985D01*
X170348019Y-44802985D02*
X170358413Y-44814794D01*
X170358413Y-44814794D02*
X170368704Y-44826694D01*
X170368704Y-44826694D02*
X170378891Y-44838682D01*
X170378891Y-44838682D02*
X170388973Y-44850759D01*
X170388973Y-44850759D02*
X170398949Y-44862924D01*
X170398949Y-44862924D02*
X170408819Y-44875175D01*
X170408819Y-44875175D02*
X170418581Y-44887512D01*
X170418581Y-44887512D02*
X170428235Y-44899934D01*
X170428235Y-44899934D02*
X170437780Y-44912439D01*
X170437780Y-44912439D02*
X170447216Y-44925028D01*
X170447216Y-44925028D02*
X170456542Y-44937698D01*
X170456542Y-44937698D02*
X170465757Y-44950449D01*
X170465757Y-44950449D02*
X170474860Y-44963280D01*
X170474860Y-44963280D02*
X170483851Y-44976190D01*
X170483851Y-44976190D02*
X170492728Y-44989177D01*
X170492728Y-44989177D02*
X170501492Y-45002242D01*
X170501492Y-45002242D02*
X170510142Y-45015383D01*
X170510142Y-45015383D02*
X170518677Y-45028599D01*
X170518677Y-45028599D02*
X170527096Y-45041889D01*
X170527096Y-45041889D02*
X170535399Y-45055251D01*
X170535399Y-45055251D02*
X170543585Y-45068686D01*
X170543585Y-45068686D02*
X170551653Y-45082192D01*
X170551653Y-45082192D02*
X170559604Y-45095767D01*
X170559604Y-45095767D02*
X170567435Y-45109412D01*
X170567435Y-45109412D02*
X170575147Y-45123124D01*
X170575147Y-45123124D02*
X170582739Y-45136903D01*
X170582739Y-45136903D02*
X170590211Y-45150747D01*
X170590211Y-45150747D02*
X170597561Y-45164657D01*
X170597561Y-45164657D02*
X170604790Y-45178630D01*
X170604790Y-45178630D02*
X170611897Y-45192665D01*
X170611897Y-45192665D02*
X170618880Y-45206762D01*
X170618880Y-45206762D02*
X170625741Y-45220920D01*
X170625741Y-45220920D02*
X170632478Y-45235137D01*
X170632478Y-45235137D02*
X170639090Y-45249412D01*
X170639090Y-45249412D02*
X170645578Y-45263744D01*
X170645578Y-45263744D02*
X170651940Y-45278132D01*
X170651940Y-45278132D02*
X170658177Y-45292575D01*
X170658177Y-45292575D02*
X170664287Y-45307072D01*
X170664287Y-45307072D02*
X170670270Y-45321622D01*
X170670270Y-45321622D02*
X170676127Y-45336224D01*
X170676127Y-45336224D02*
X170681855Y-45350876D01*
X170681855Y-45350876D02*
X170687456Y-45365577D01*
X170687456Y-45365577D02*
X170692928Y-45380327D01*
X170692928Y-45380327D02*
X170698271Y-45395124D01*
X170698271Y-45395124D02*
X170703485Y-45409967D01*
X170703485Y-45409967D02*
X170708569Y-45424855D01*
X170708569Y-45424855D02*
X170713523Y-45439787D01*
X170713523Y-45439787D02*
X170718346Y-45454761D01*
X170718346Y-45454761D02*
X170723039Y-45469777D01*
X170723039Y-45469777D02*
X170727600Y-45484833D01*
X170727600Y-45484833D02*
X170732030Y-45499929D01*
X170732030Y-45499929D02*
X170736328Y-45515063D01*
X170736328Y-45515063D02*
X170740494Y-45530233D01*
X170740494Y-45530233D02*
X170744527Y-45545440D01*
X170744527Y-45545440D02*
X170748427Y-45560681D01*
X170748427Y-45560681D02*
X170752195Y-45575955D01*
X170752195Y-45575955D02*
X170755828Y-45591262D01*
X170755828Y-45591262D02*
X170759328Y-45606600D01*
X170759328Y-45606600D02*
X170762694Y-45621968D01*
X170762694Y-45621968D02*
X170765926Y-45637364D01*
X170765926Y-45637364D02*
X170769023Y-45652788D01*
X170769023Y-45652788D02*
X170771986Y-45668239D01*
X170771986Y-45668239D02*
X170774814Y-45683715D01*
X170774814Y-45683715D02*
X170777506Y-45699215D01*
X170777506Y-45699215D02*
X170780063Y-45714738D01*
X170780063Y-45714738D02*
X170782485Y-45730283D01*
X170782485Y-45730283D02*
X170784771Y-45745848D01*
X170784771Y-45745848D02*
X170786921Y-45761432D01*
X170786921Y-45761432D02*
X170788934Y-45777035D01*
X170788934Y-45777035D02*
X170790812Y-45792655D01*
X170790812Y-45792655D02*
X170792553Y-45808290D01*
X170792553Y-45808290D02*
X170794158Y-45823940D01*
X170794158Y-45823940D02*
X170795626Y-45839604D01*
X170795626Y-45839604D02*
X170796957Y-45855279D01*
X170796957Y-45855279D02*
X170798152Y-45870966D01*
X170798152Y-45870966D02*
X170799209Y-45886663D01*
X170799209Y-45886663D02*
X170800130Y-45902368D01*
X170800130Y-45902368D02*
X170800913Y-45918081D01*
X170800913Y-45918081D02*
X170801560Y-45933799D01*
X170801560Y-45933799D02*
X170802069Y-45949523D01*
X170802069Y-45949523D02*
X170802441Y-45965251D01*
X170802441Y-45965251D02*
X170802675Y-45980981D01*
X170802675Y-45980981D02*
X170802773Y-45996713D01*
X170802773Y-45996713D02*
X170802733Y-46012445D01*
X170802733Y-46012445D02*
X170802555Y-46028176D01*
X170802555Y-46028176D02*
X170802241Y-46043905D01*
X170802241Y-46043905D02*
X170801789Y-46059631D01*
X170801789Y-46059631D02*
X170801200Y-46075352D01*
X170801200Y-46075352D02*
X170800474Y-46091068D01*
X170800474Y-46091068D02*
X170799611Y-46106776D01*
X170799611Y-46106776D02*
X170798610Y-46122476D01*
X170798610Y-46122476D02*
X170797473Y-46138167D01*
X170797473Y-46138167D02*
X170796199Y-46153848D01*
X170796199Y-46153848D02*
X170794788Y-46169516D01*
X170794788Y-46169516D02*
X170793240Y-46185172D01*
X170793240Y-46185172D02*
X170791556Y-46200814D01*
X170791556Y-46200814D02*
X170789736Y-46216440D01*
X170789736Y-46216440D02*
X170787779Y-46232050D01*
X170787779Y-46232050D02*
X170785686Y-46247643D01*
X170785686Y-46247643D02*
X170783457Y-46263216D01*
X170783457Y-46263216D02*
X170781092Y-46278769D01*
X170781092Y-46278769D02*
X170778591Y-46294302D01*
X170778591Y-46294302D02*
X170775955Y-46309811D01*
X170775955Y-46309811D02*
X170773634Y-46322832D01*
X170463242Y-47053053D02*
X170439519Y-47085258D01*
X170000000Y-110000000D02*
X169986872Y-110008669D01*
X169986872Y-110008669D02*
X169973669Y-110017224D01*
X169973669Y-110017224D02*
X169960392Y-110025663D01*
X169960392Y-110025663D02*
X169947042Y-110033986D01*
X169947042Y-110033986D02*
X169933619Y-110042192D01*
X169933619Y-110042192D02*
X169920126Y-110050280D01*
X169920126Y-110050280D02*
X169906562Y-110058251D01*
X169906562Y-110058251D02*
X169892929Y-110066103D01*
X169892929Y-110066103D02*
X169879229Y-110073835D01*
X169879229Y-110073835D02*
X169865461Y-110081448D01*
X169865461Y-110081448D02*
X169851628Y-110088940D01*
X169851628Y-110088940D02*
X169837729Y-110096311D01*
X169837729Y-110096311D02*
X169823767Y-110103561D01*
X169823767Y-110103561D02*
X169809742Y-110110689D01*
X169809742Y-110110689D02*
X169795656Y-110117693D01*
X169795656Y-110117693D02*
X169781508Y-110124575D01*
X169781508Y-110124575D02*
X169767302Y-110131333D01*
X169767302Y-110131333D02*
X169753037Y-110137967D01*
X169753037Y-110137967D02*
X169738714Y-110144476D01*
X169738714Y-110144476D02*
X169724335Y-110150860D01*
X169724335Y-110150860D02*
X169709902Y-110157118D01*
X169709902Y-110157118D02*
X169695414Y-110163250D01*
X169695414Y-110163250D02*
X169680873Y-110169255D01*
X169680873Y-110169255D02*
X169666280Y-110175133D01*
X169666280Y-110175133D02*
X169651637Y-110180884D01*
X169651637Y-110180884D02*
X169636943Y-110186506D01*
X169636943Y-110186506D02*
X169622202Y-110192000D01*
X169622202Y-110192000D02*
X169607413Y-110197365D01*
X169607413Y-110197365D02*
X169592578Y-110202601D01*
X169592578Y-110202601D02*
X169577697Y-110207708D01*
X169577697Y-110207708D02*
X169562773Y-110212684D01*
X169562773Y-110212684D02*
X169547806Y-110217530D01*
X169547806Y-110217530D02*
X169532797Y-110222245D01*
X169532797Y-110222245D02*
X169517747Y-110226829D01*
X169517747Y-110226829D02*
X169502658Y-110231281D01*
X169502658Y-110231281D02*
X169487531Y-110235602D01*
X169487531Y-110235602D02*
X169472367Y-110239790D01*
X169472367Y-110239790D02*
X169457166Y-110243846D01*
X169457166Y-110243846D02*
X169441931Y-110247769D01*
X169441931Y-110247769D02*
X169426662Y-110251559D01*
X169426662Y-110251559D02*
X169411361Y-110255216D01*
X169411361Y-110255216D02*
X169396029Y-110258739D01*
X169396029Y-110258739D02*
X169380666Y-110262128D01*
X169380666Y-110262128D02*
X169365274Y-110265382D01*
X169365274Y-110265382D02*
X169349854Y-110268503D01*
X169349854Y-110268503D02*
X169334408Y-110271488D01*
X169334408Y-110271488D02*
X169318936Y-110274339D01*
X169318936Y-110274339D02*
X169303440Y-110277055D01*
X169303440Y-110277055D02*
X169287921Y-110279635D01*
X169287921Y-110279635D02*
X169272380Y-110282080D01*
X169272380Y-110282080D02*
X169256819Y-110284389D01*
X169256819Y-110284389D02*
X169241237Y-110286562D01*
X169241237Y-110286562D02*
X169225638Y-110288599D01*
X169225638Y-110288599D02*
X169210021Y-110290500D01*
X169210021Y-110290500D02*
X169194388Y-110292265D01*
X169194388Y-110292265D02*
X169178740Y-110293893D01*
X169178740Y-110293893D02*
X169163079Y-110295384D01*
X169163079Y-110295384D02*
X169147405Y-110296739D01*
X169147405Y-110296739D02*
X169131720Y-110297957D01*
X169131720Y-110297957D02*
X169116025Y-110299038D01*
X169116025Y-110299038D02*
X169100322Y-110299982D01*
X169100322Y-110299982D02*
X169084610Y-110300789D01*
X169084610Y-110300789D02*
X169068892Y-110301459D01*
X169068892Y-110301459D02*
X169053169Y-110301991D01*
X169053169Y-110301991D02*
X169037442Y-110302387D01*
X169037442Y-110302387D02*
X169021712Y-110302645D01*
X169021712Y-110302645D02*
X169005980Y-110302766D01*
X169005980Y-110302766D02*
X168990248Y-110302749D01*
X168990248Y-110302749D02*
X168974517Y-110302596D01*
X168974517Y-110302596D02*
X168958787Y-110302305D01*
X168958787Y-110302305D02*
X168943061Y-110301876D01*
X168943061Y-110301876D02*
X168927339Y-110301311D01*
X168927339Y-110301311D02*
X168911623Y-110300608D01*
X168911623Y-110300608D02*
X168895913Y-110299768D01*
X168895913Y-110299768D02*
X168880211Y-110298791D01*
X168880211Y-110298791D02*
X168864519Y-110297678D01*
X168864519Y-110297678D02*
X168848836Y-110296427D01*
X168848836Y-110296427D02*
X168833165Y-110295039D01*
X168833165Y-110295039D02*
X168817507Y-110293515D01*
X168817507Y-110293515D02*
X168801863Y-110291854D01*
X168801863Y-110291854D02*
X168786234Y-110290057D01*
X168786234Y-110290057D02*
X168770621Y-110288123D01*
X168770621Y-110288123D02*
X168755026Y-110286054D01*
X168755026Y-110286054D02*
X168739449Y-110283848D01*
X168739449Y-110283848D02*
X168723892Y-110281506D01*
X168723892Y-110281506D02*
X168708356Y-110279029D01*
X168708356Y-110279029D02*
X168692843Y-110276416D01*
X168692843Y-110276416D02*
X168677352Y-110273668D01*
X168677352Y-110273668D02*
X168661887Y-110270785D01*
X168661887Y-110270785D02*
X168646447Y-110267767D01*
X168646447Y-110267767D02*
X168631034Y-110264614D01*
X168631034Y-110264614D02*
X168615649Y-110261327D01*
X168615649Y-110261327D02*
X168600293Y-110257906D01*
X168600293Y-110257906D02*
X168584968Y-110254351D01*
X168584968Y-110254351D02*
X168569674Y-110250663D01*
X168569674Y-110250663D02*
X168554413Y-110246841D01*
X168554413Y-110246841D02*
X168539186Y-110242886D01*
X168539186Y-110242886D02*
X168523995Y-110238798D01*
X168523995Y-110238798D02*
X168508839Y-110234578D01*
X168508839Y-110234578D02*
X168493721Y-110230226D01*
X168493721Y-110230226D02*
X168478641Y-110225742D01*
X168478641Y-110225742D02*
X168463601Y-110221127D01*
X168463601Y-110221127D02*
X168448602Y-110216380D01*
X168448602Y-110216380D02*
X168433645Y-110211503D01*
X168433645Y-110211503D02*
X168418731Y-110206495D01*
X168418731Y-110206495D02*
X168403862Y-110201358D01*
X168403862Y-110201358D02*
X168389037Y-110196091D01*
X168389037Y-110196091D02*
X168374260Y-110190695D01*
X168374260Y-110190695D02*
X168359530Y-110185170D01*
X168359530Y-110185170D02*
X168344848Y-110179517D01*
X168344848Y-110179517D02*
X168330217Y-110173736D01*
X168330217Y-110173736D02*
X168315637Y-110167827D01*
X168315637Y-110167827D02*
X168301108Y-110161791D01*
X168301108Y-110161791D02*
X168286633Y-110155629D01*
X168286633Y-110155629D02*
X168272212Y-110149341D01*
X168272212Y-110149341D02*
X168257847Y-110142927D01*
X168257847Y-110142927D02*
X168243538Y-110136388D01*
X168243538Y-110136388D02*
X168229287Y-110129724D01*
X168229287Y-110129724D02*
X168215095Y-110122937D01*
X168215095Y-110122937D02*
X168200962Y-110116025D01*
X168200962Y-110116025D02*
X168186890Y-110108991D01*
X168186890Y-110108991D02*
X168172880Y-110101834D01*
X168172880Y-110101834D02*
X168158933Y-110094555D01*
X168158933Y-110094555D02*
X168145050Y-110087155D01*
X168145050Y-110087155D02*
X168131232Y-110079634D01*
X168131232Y-110079634D02*
X168117481Y-110071992D01*
X168117481Y-110071992D02*
X168103796Y-110064231D01*
X168103796Y-110064231D02*
X168090180Y-110056351D01*
X168090180Y-110056351D02*
X168076633Y-110048352D01*
X168076633Y-110048352D02*
X168063157Y-110040235D01*
X168063157Y-110040235D02*
X168049751Y-110032001D01*
X168049751Y-110032001D02*
X168036418Y-110023650D01*
X168036418Y-110023650D02*
X168023159Y-110015184D01*
X168023159Y-110015184D02*
X168009974Y-110006602D01*
X168009974Y-110006602D02*
X167996864Y-109997905D01*
X167996864Y-109997905D02*
X167983831Y-109989094D01*
X167983831Y-109989094D02*
X167970875Y-109980169D01*
X167970875Y-109980169D02*
X167957997Y-109971132D01*
X167957997Y-109971132D02*
X167945199Y-109961983D01*
X167945199Y-109961983D02*
X167934502Y-109954205D01*
X167413356Y-109355897D02*
X167394757Y-109320485D01*
X167197969Y-108551823D02*
X167197586Y-108536096D01*
X167197586Y-108536096D02*
X167197339Y-108520365D01*
X167197339Y-108520365D02*
X167197230Y-108504634D01*
X167197230Y-108504634D02*
X167197259Y-108488901D01*
X167197259Y-108488901D02*
X167197424Y-108473170D01*
X167197424Y-108473170D02*
X167197727Y-108457441D01*
X167197727Y-108457441D02*
X167198167Y-108441715D01*
X167198167Y-108441715D02*
X167198744Y-108425993D01*
X167198744Y-108425993D02*
X167199458Y-108410278D01*
X167199458Y-108410278D02*
X167200310Y-108394568D01*
X167200310Y-108394568D02*
X167201299Y-108378867D01*
X167201299Y-108378867D02*
X167202424Y-108363176D01*
X167202424Y-108363176D02*
X167203687Y-108347494D01*
X167203687Y-108347494D02*
X167205086Y-108331824D01*
X167205086Y-108331824D02*
X167206622Y-108316167D01*
X167206622Y-108316167D02*
X167208294Y-108300524D01*
X167208294Y-108300524D02*
X167210103Y-108284897D01*
X167210103Y-108284897D02*
X167212048Y-108269285D01*
X167212048Y-108269285D02*
X167214130Y-108253691D01*
X167214130Y-108253691D02*
X167216347Y-108238116D01*
X167216347Y-108238116D02*
X167218701Y-108222561D01*
X167218701Y-108222561D02*
X167221189Y-108207027D01*
X167221189Y-108207027D02*
X167223814Y-108191515D01*
X167223814Y-108191515D02*
X167226573Y-108176027D01*
X167226573Y-108176027D02*
X167229468Y-108160564D01*
X167229468Y-108160564D02*
X167232498Y-108145126D01*
X167232498Y-108145126D02*
X167235662Y-108129715D01*
X167235662Y-108129715D02*
X167238960Y-108114333D01*
X167238960Y-108114333D02*
X167242393Y-108098980D01*
X167242393Y-108098980D02*
X167245959Y-108083657D01*
X167245959Y-108083657D02*
X167249659Y-108068366D01*
X167249659Y-108068366D02*
X167253493Y-108053108D01*
X167253493Y-108053108D02*
X167257459Y-108037885D01*
X167257459Y-108037885D02*
X167261558Y-108022696D01*
X167261558Y-108022696D02*
X167265789Y-108007543D01*
X167265789Y-108007543D02*
X167270153Y-107992428D01*
X167270153Y-107992428D02*
X167274648Y-107977352D01*
X167274648Y-107977352D02*
X167279275Y-107962316D01*
X167279275Y-107962316D02*
X167284032Y-107947320D01*
X167284032Y-107947320D02*
X167288921Y-107932367D01*
X167288921Y-107932367D02*
X167293939Y-107917457D01*
X167293939Y-107917457D02*
X167299088Y-107902591D01*
X167299088Y-107902591D02*
X167304366Y-107887771D01*
X167304366Y-107887771D02*
X167309773Y-107872997D01*
X167309773Y-107872997D02*
X167315309Y-107858271D01*
X167315309Y-107858271D02*
X167320973Y-107843594D01*
X167320973Y-107843594D02*
X167326765Y-107828967D01*
X167326765Y-107828967D02*
X167332685Y-107814391D01*
X167332685Y-107814391D02*
X167338731Y-107799867D01*
X167338731Y-107799867D02*
X167344904Y-107785397D01*
X167344904Y-107785397D02*
X167351203Y-107770980D01*
X167351203Y-107770980D02*
X167357628Y-107756620D01*
X167357628Y-107756620D02*
X167364178Y-107742316D01*
X167364178Y-107742316D02*
X167370852Y-107728070D01*
X167370852Y-107728070D02*
X167377650Y-107713882D01*
X167377650Y-107713882D02*
X167384572Y-107699755D01*
X167384572Y-107699755D02*
X167391617Y-107685688D01*
X167391617Y-107685688D02*
X167398784Y-107671684D01*
X167398784Y-107671684D02*
X167406074Y-107657742D01*
X167406074Y-107657742D02*
X167413484Y-107643865D01*
X167413484Y-107643865D02*
X167421016Y-107630053D01*
X167421016Y-107630053D02*
X167428667Y-107616307D01*
X167428667Y-107616307D02*
X167436439Y-107602628D01*
X167436439Y-107602628D02*
X167444329Y-107589018D01*
X167444329Y-107589018D02*
X167452338Y-107575477D01*
X167452338Y-107575477D02*
X167460465Y-107562006D01*
X167460465Y-107562006D02*
X167468709Y-107548607D01*
X167468709Y-107548607D02*
X167477070Y-107535280D01*
X167477070Y-107535280D02*
X167485547Y-107522027D01*
X167485547Y-107522027D02*
X167494138Y-107508849D01*
X167494138Y-107508849D02*
X167502845Y-107495745D01*
X167502845Y-107495745D02*
X167511666Y-107482719D01*
X167511666Y-107482719D02*
X167520600Y-107469769D01*
X167520600Y-107469769D02*
X167529647Y-107456899D01*
X167529647Y-107456899D02*
X167538805Y-107444107D01*
X167538805Y-107444107D02*
X167548075Y-107431396D01*
X167548075Y-107431396D02*
X167557456Y-107418767D01*
X167557456Y-107418767D02*
X167566946Y-107406219D01*
X167566946Y-107406219D02*
X167576545Y-107393755D01*
X167576545Y-107393755D02*
X167586253Y-107381376D01*
X167586253Y-107381376D02*
X167596069Y-107369081D01*
X167596069Y-107369081D02*
X167605991Y-107356873D01*
X167605991Y-107356873D02*
X167616020Y-107344751D01*
X167616020Y-107344751D02*
X167626154Y-107332718D01*
X167626154Y-107332718D02*
X167636393Y-107320774D01*
X167636393Y-107320774D02*
X167646735Y-107308919D01*
X167646735Y-107308919D02*
X167657181Y-107297155D01*
X167657181Y-107297155D02*
X167667728Y-107285483D01*
X167667728Y-107285483D02*
X167678378Y-107273903D01*
X167678378Y-107273903D02*
X167689128Y-107262416D01*
X167689128Y-107262416D02*
X167699977Y-107251024D01*
X167699977Y-107251024D02*
X167710926Y-107239727D01*
X167710926Y-107239727D02*
X167721973Y-107228526D01*
X167721973Y-107228526D02*
X167733117Y-107217421D01*
X167733117Y-107217421D02*
X167744358Y-107206415D01*
X167744358Y-107206415D02*
X167755694Y-107195507D01*
X167755694Y-107195507D02*
X167767125Y-107184698D01*
X167767125Y-107184698D02*
X167778650Y-107173989D01*
X167778650Y-107173989D02*
X167790268Y-107163381D01*
X167790268Y-107163381D02*
X167801978Y-107152876D01*
X167801978Y-107152876D02*
X167813780Y-107142472D01*
X167813780Y-107142472D02*
X167825671Y-107132172D01*
X167825671Y-107132172D02*
X167837652Y-107121977D01*
X167837652Y-107121977D02*
X167849722Y-107111886D01*
X167849722Y-107111886D02*
X167861879Y-107101901D01*
X167861879Y-107101901D02*
X167874123Y-107092022D01*
X167874123Y-107092022D02*
X167886453Y-107082251D01*
X167886453Y-107082251D02*
X167898867Y-107072587D01*
X167898867Y-107072587D02*
X167911366Y-107063033D01*
X167911366Y-107063033D02*
X167923947Y-107053587D01*
X167923947Y-107053587D02*
X167936610Y-107044252D01*
X167936610Y-107044252D02*
X167949354Y-107035028D01*
X167949354Y-107035028D02*
X167962178Y-107025915D01*
X167962178Y-107025915D02*
X167975081Y-107016915D01*
X167975081Y-107016915D02*
X167988063Y-107008027D01*
X167988063Y-107008027D02*
X168001121Y-106999253D01*
X168001121Y-106999253D02*
X168014255Y-106990594D01*
X168014255Y-106990594D02*
X168027465Y-106982049D01*
X168027465Y-106982049D02*
X168040748Y-106973620D01*
X168040748Y-106973620D02*
X168054105Y-106965307D01*
X168054105Y-106965307D02*
X168067533Y-106957111D01*
X168067533Y-106957111D02*
X168081033Y-106949033D01*
X168081033Y-106949033D02*
X168094602Y-106941072D01*
X168094602Y-106941072D02*
X168108241Y-106933231D01*
X168108241Y-106933231D02*
X168121947Y-106925509D01*
X168121947Y-106925509D02*
X168135721Y-106917906D01*
X168135721Y-106917906D02*
X168149560Y-106910424D01*
X168149560Y-106910424D02*
X168163464Y-106903063D01*
X168163464Y-106903063D02*
X168177431Y-106895824D01*
X168177431Y-106895824D02*
X168191461Y-106888707D01*
X168191461Y-106888707D02*
X168205553Y-106881713D01*
X168205553Y-106881713D02*
X168219705Y-106874841D01*
X168219705Y-106874841D02*
X168233917Y-106868094D01*
X168233917Y-106868094D02*
X168248187Y-106861471D01*
X168248187Y-106861471D02*
X168262515Y-106854973D01*
X168262515Y-106854973D02*
X168276898Y-106848600D01*
X168276898Y-106848600D02*
X168291337Y-106842352D01*
X168291337Y-106842352D02*
X168305829Y-106836231D01*
X168305829Y-106836231D02*
X168320374Y-106830237D01*
X168320374Y-106830237D02*
X168332643Y-106825296D01*
X169116296Y-106700979D02*
X169156181Y-106704002D01*
X169912144Y-106945010D02*
X169925679Y-106953029D01*
X169925679Y-106953029D02*
X169939144Y-106961166D01*
X169939144Y-106961166D02*
X169952537Y-106969420D01*
X169952537Y-106969420D02*
X169965857Y-106977791D01*
X169965857Y-106977791D02*
X169979104Y-106986278D01*
X169979104Y-106986278D02*
X169992276Y-106994879D01*
X169992276Y-106994879D02*
X170005373Y-107003596D01*
X170005373Y-107003596D02*
X170018393Y-107012426D01*
X170018393Y-107012426D02*
X170031336Y-107021370D01*
X170031336Y-107021370D02*
X170044200Y-107030426D01*
X170044200Y-107030426D02*
X170056984Y-107039594D01*
X170056984Y-107039594D02*
X170069688Y-107048874D01*
X170069688Y-107048874D02*
X170082311Y-107058264D01*
X170082311Y-107058264D02*
X170094851Y-107067763D01*
X170094851Y-107067763D02*
X170107308Y-107077372D01*
X170107308Y-107077372D02*
X170119680Y-107087089D01*
X170119680Y-107087089D02*
X170131967Y-107096914D01*
X170131967Y-107096914D02*
X170144168Y-107106846D01*
X170144168Y-107106846D02*
X170156282Y-107116883D01*
X170156282Y-107116883D02*
X170168308Y-107127026D01*
X170168308Y-107127026D02*
X170180245Y-107137274D01*
X170180245Y-107137274D02*
X170192092Y-107147625D01*
X170192092Y-107147625D02*
X170203848Y-107158080D01*
X170203848Y-107158080D02*
X170215512Y-107168636D01*
X170215512Y-107168636D02*
X170227084Y-107179294D01*
X170227084Y-107179294D02*
X170238563Y-107190052D01*
X170238563Y-107190052D02*
X170249947Y-107200911D01*
X170249947Y-107200911D02*
X170261236Y-107211868D01*
X170261236Y-107211868D02*
X170272429Y-107222923D01*
X170272429Y-107222923D02*
X170283525Y-107234076D01*
X170283525Y-107234076D02*
X170294523Y-107245325D01*
X170294523Y-107245325D02*
X170305423Y-107256669D01*
X170305423Y-107256669D02*
X170316223Y-107268108D01*
X170316223Y-107268108D02*
X170326923Y-107279641D01*
X170326923Y-107279641D02*
X170337522Y-107291267D01*
X170337522Y-107291267D02*
X170348019Y-107302985D01*
X170348019Y-107302985D02*
X170358413Y-107314794D01*
X170358413Y-107314794D02*
X170368704Y-107326694D01*
X170368704Y-107326694D02*
X170378891Y-107338682D01*
X170378891Y-107338682D02*
X170388973Y-107350759D01*
X170388973Y-107350759D02*
X170398949Y-107362924D01*
X170398949Y-107362924D02*
X170408819Y-107375175D01*
X170408819Y-107375175D02*
X170418581Y-107387512D01*
X170418581Y-107387512D02*
X170428235Y-107399934D01*
X170428235Y-107399934D02*
X170437780Y-107412439D01*
X170437780Y-107412439D02*
X170447216Y-107425028D01*
X170447216Y-107425028D02*
X170456542Y-107437698D01*
X170456542Y-107437698D02*
X170465757Y-107450449D01*
X170465757Y-107450449D02*
X170474860Y-107463280D01*
X170474860Y-107463280D02*
X170483851Y-107476190D01*
X170483851Y-107476190D02*
X170492728Y-107489177D01*
X170492728Y-107489177D02*
X170501492Y-107502242D01*
X170501492Y-107502242D02*
X170510142Y-107515383D01*
X170510142Y-107515383D02*
X170518677Y-107528599D01*
X170518677Y-107528599D02*
X170527096Y-107541889D01*
X170527096Y-107541889D02*
X170535399Y-107555251D01*
X170535399Y-107555251D02*
X170543585Y-107568686D01*
X170543585Y-107568686D02*
X170551653Y-107582192D01*
X170551653Y-107582192D02*
X170559604Y-107595767D01*
X170559604Y-107595767D02*
X170567435Y-107609412D01*
X170567435Y-107609412D02*
X170575147Y-107623124D01*
X170575147Y-107623124D02*
X170582739Y-107636903D01*
X170582739Y-107636903D02*
X170590211Y-107650747D01*
X170590211Y-107650747D02*
X170597561Y-107664657D01*
X170597561Y-107664657D02*
X170604790Y-107678630D01*
X170604790Y-107678630D02*
X170611897Y-107692665D01*
X170611897Y-107692665D02*
X170618880Y-107706762D01*
X170618880Y-107706762D02*
X170625741Y-107720920D01*
X170625741Y-107720920D02*
X170632478Y-107735137D01*
X170632478Y-107735137D02*
X170639090Y-107749412D01*
X170639090Y-107749412D02*
X170645578Y-107763744D01*
X170645578Y-107763744D02*
X170651940Y-107778132D01*
X170651940Y-107778132D02*
X170658177Y-107792575D01*
X170658177Y-107792575D02*
X170664287Y-107807072D01*
X170664287Y-107807072D02*
X170670270Y-107821622D01*
X170670270Y-107821622D02*
X170676127Y-107836224D01*
X170676127Y-107836224D02*
X170681855Y-107850876D01*
X170681855Y-107850876D02*
X170687456Y-107865577D01*
X170687456Y-107865577D02*
X170692928Y-107880327D01*
X170692928Y-107880327D02*
X170698271Y-107895124D01*
X170698271Y-107895124D02*
X170703485Y-107909967D01*
X170703485Y-107909967D02*
X170708569Y-107924855D01*
X170708569Y-107924855D02*
X170713523Y-107939787D01*
X170713523Y-107939787D02*
X170718346Y-107954761D01*
X170718346Y-107954761D02*
X170723039Y-107969777D01*
X170723039Y-107969777D02*
X170727600Y-107984833D01*
X170727600Y-107984833D02*
X170732030Y-107999929D01*
X170732030Y-107999929D02*
X170736328Y-108015063D01*
X170736328Y-108015063D02*
X170740494Y-108030233D01*
X170740494Y-108030233D02*
X170744527Y-108045440D01*
X170744527Y-108045440D02*
X170748427Y-108060681D01*
X170748427Y-108060681D02*
X170752195Y-108075955D01*
X170752195Y-108075955D02*
X170755828Y-108091262D01*
X170755828Y-108091262D02*
X170759328Y-108106600D01*
X170759328Y-108106600D02*
X170762694Y-108121968D01*
X170762694Y-108121968D02*
X170765926Y-108137364D01*
X170765926Y-108137364D02*
X170769023Y-108152788D01*
X170769023Y-108152788D02*
X170771986Y-108168239D01*
X170771986Y-108168239D02*
X170774814Y-108183715D01*
X170774814Y-108183715D02*
X170777506Y-108199215D01*
X170777506Y-108199215D02*
X170780063Y-108214738D01*
X170780063Y-108214738D02*
X170782485Y-108230283D01*
X170782485Y-108230283D02*
X170784771Y-108245848D01*
X170784771Y-108245848D02*
X170786921Y-108261432D01*
X170786921Y-108261432D02*
X170788934Y-108277035D01*
X170788934Y-108277035D02*
X170790812Y-108292655D01*
X170790812Y-108292655D02*
X170792553Y-108308290D01*
X170792553Y-108308290D02*
X170794158Y-108323940D01*
X170794158Y-108323940D02*
X170795626Y-108339604D01*
X170795626Y-108339604D02*
X170796957Y-108355279D01*
X170796957Y-108355279D02*
X170798152Y-108370966D01*
X170798152Y-108370966D02*
X170799209Y-108386663D01*
X170799209Y-108386663D02*
X170800130Y-108402368D01*
X170800130Y-108402368D02*
X170800913Y-108418081D01*
X170800913Y-108418081D02*
X170801560Y-108433799D01*
X170801560Y-108433799D02*
X170802069Y-108449523D01*
X170802069Y-108449523D02*
X170802441Y-108465251D01*
X170802441Y-108465251D02*
X170802675Y-108480981D01*
X170802675Y-108480981D02*
X170802773Y-108496713D01*
X170802773Y-108496713D02*
X170802733Y-108512445D01*
X170802733Y-108512445D02*
X170802555Y-108528176D01*
X170802555Y-108528176D02*
X170802241Y-108543905D01*
X170802241Y-108543905D02*
X170801789Y-108559631D01*
X170801789Y-108559631D02*
X170801200Y-108575352D01*
X170801200Y-108575352D02*
X170800474Y-108591068D01*
X170800474Y-108591068D02*
X170799611Y-108606776D01*
X170799611Y-108606776D02*
X170798610Y-108622476D01*
X170798610Y-108622476D02*
X170797473Y-108638167D01*
X170797473Y-108638167D02*
X170796199Y-108653848D01*
X170796199Y-108653848D02*
X170794788Y-108669516D01*
X170794788Y-108669516D02*
X170793240Y-108685172D01*
X170793240Y-108685172D02*
X170791556Y-108700814D01*
X170791556Y-108700814D02*
X170789736Y-108716440D01*
X170789736Y-108716440D02*
X170787779Y-108732050D01*
X170787779Y-108732050D02*
X170785686Y-108747643D01*
X170785686Y-108747643D02*
X170783457Y-108763216D01*
X170783457Y-108763216D02*
X170781092Y-108778769D01*
X170781092Y-108778769D02*
X170778591Y-108794302D01*
X170778591Y-108794302D02*
X170775955Y-108809811D01*
X170775955Y-108809811D02*
X170773634Y-108822832D01*
X170463242Y-109553053D02*
X170439519Y-109585258D01*
X127244838Y-108177945D02*
X129244838Y-107511279D01*
X129244838Y-107511279D02*
X127244838Y-106844612D01*
X129244838Y-106177945D02*
X127911504Y-106177945D01*
X127244838Y-106177945D02*
X127340076Y-106273183D01*
X127340076Y-106273183D02*
X127435314Y-106177945D01*
X127435314Y-106177945D02*
X127340076Y-106082707D01*
X127340076Y-106082707D02*
X127244838Y-106177945D01*
X127244838Y-106177945D02*
X127435314Y-106177945D01*
X129244838Y-104368421D02*
X127244838Y-104368421D01*
X129149600Y-104368421D02*
X129244838Y-104558897D01*
X129244838Y-104558897D02*
X129244838Y-104939850D01*
X129244838Y-104939850D02*
X129149600Y-105130326D01*
X129149600Y-105130326D02*
X129054361Y-105225564D01*
X129054361Y-105225564D02*
X128863885Y-105320802D01*
X128863885Y-105320802D02*
X128292457Y-105320802D01*
X128292457Y-105320802D02*
X128101980Y-105225564D01*
X128101980Y-105225564D02*
X128006742Y-105130326D01*
X128006742Y-105130326D02*
X127911504Y-104939850D01*
X127911504Y-104939850D02*
X127911504Y-104558897D01*
X127911504Y-104558897D02*
X128006742Y-104368421D01*
X129149600Y-102654135D02*
X129244838Y-102844611D01*
X129244838Y-102844611D02*
X129244838Y-103225564D01*
X129244838Y-103225564D02*
X129149600Y-103416040D01*
X129149600Y-103416040D02*
X128959123Y-103511278D01*
X128959123Y-103511278D02*
X128197219Y-103511278D01*
X128197219Y-103511278D02*
X128006742Y-103416040D01*
X128006742Y-103416040D02*
X127911504Y-103225564D01*
X127911504Y-103225564D02*
X127911504Y-102844611D01*
X127911504Y-102844611D02*
X128006742Y-102654135D01*
X128006742Y-102654135D02*
X128197219Y-102558897D01*
X128197219Y-102558897D02*
X128387695Y-102558897D01*
X128387695Y-102558897D02*
X128578171Y-103511278D01*
X129244838Y-101416040D02*
X129149600Y-101606516D01*
X129149600Y-101606516D02*
X129054361Y-101701754D01*
X129054361Y-101701754D02*
X128863885Y-101796992D01*
X128863885Y-101796992D02*
X128292457Y-101796992D01*
X128292457Y-101796992D02*
X128101980Y-101701754D01*
X128101980Y-101701754D02*
X128006742Y-101606516D01*
X128006742Y-101606516D02*
X127911504Y-101416040D01*
X127911504Y-101416040D02*
X127911504Y-101130325D01*
X127911504Y-101130325D02*
X128006742Y-100939849D01*
X128006742Y-100939849D02*
X128101980Y-100844611D01*
X128101980Y-100844611D02*
X128292457Y-100749373D01*
X128292457Y-100749373D02*
X128863885Y-100749373D01*
X128863885Y-100749373D02*
X129054361Y-100844611D01*
X129054361Y-100844611D02*
X129149600Y-100939849D01*
X129149600Y-100939849D02*
X129244838Y-101130325D01*
X129244838Y-101130325D02*
X129244838Y-101416040D01*
X129149600Y-99035087D02*
X129244838Y-99225563D01*
X129244838Y-99225563D02*
X129244838Y-99606516D01*
X129244838Y-99606516D02*
X129149600Y-99796992D01*
X129149600Y-99796992D02*
X129054361Y-99892230D01*
X129054361Y-99892230D02*
X128863885Y-99987468D01*
X128863885Y-99987468D02*
X128292457Y-99987468D01*
X128292457Y-99987468D02*
X128101980Y-99892230D01*
X128101980Y-99892230D02*
X128006742Y-99796992D01*
X128006742Y-99796992D02*
X127911504Y-99606516D01*
X127911504Y-99606516D02*
X127911504Y-99225563D01*
X127911504Y-99225563D02*
X128006742Y-99035087D01*
X129244838Y-98177944D02*
X127911504Y-98177944D01*
X128292457Y-98177944D02*
X128101980Y-98082706D01*
X128101980Y-98082706D02*
X128006742Y-97987468D01*
X128006742Y-97987468D02*
X127911504Y-97796992D01*
X127911504Y-97796992D02*
X127911504Y-97606515D01*
X129244838Y-96082706D02*
X128197219Y-96082706D01*
X128197219Y-96082706D02*
X128006742Y-96177944D01*
X128006742Y-96177944D02*
X127911504Y-96368420D01*
X127911504Y-96368420D02*
X127911504Y-96749373D01*
X127911504Y-96749373D02*
X128006742Y-96939849D01*
X129149600Y-96082706D02*
X129244838Y-96273182D01*
X129244838Y-96273182D02*
X129244838Y-96749373D01*
X129244838Y-96749373D02*
X129149600Y-96939849D01*
X129149600Y-96939849D02*
X128959123Y-97035087D01*
X128959123Y-97035087D02*
X128768647Y-97035087D01*
X128768647Y-97035087D02*
X128578171Y-96939849D01*
X128578171Y-96939849D02*
X128482933Y-96749373D01*
X128482933Y-96749373D02*
X128482933Y-96273182D01*
X128482933Y-96273182D02*
X128387695Y-96082706D01*
X127911504Y-95416039D02*
X127911504Y-94654135D01*
X129244838Y-95130325D02*
X127530552Y-95130325D01*
X127530552Y-95130325D02*
X127340076Y-95035087D01*
X127340076Y-95035087D02*
X127244838Y-94844611D01*
X127244838Y-94844611D02*
X127244838Y-94654135D01*
X127911504Y-94273182D02*
X127911504Y-93511278D01*
X127244838Y-93987468D02*
X128959123Y-93987468D01*
X128959123Y-93987468D02*
X129149600Y-93892230D01*
X129149600Y-93892230D02*
X129244838Y-93701754D01*
X129244838Y-93701754D02*
X129244838Y-93511278D01*
X171755161Y-88677944D02*
X173755161Y-88677944D01*
X173755161Y-88677944D02*
X173755161Y-89439849D01*
X173755161Y-89439849D02*
X173659923Y-89630325D01*
X173659923Y-89630325D02*
X173564685Y-89725563D01*
X173564685Y-89725563D02*
X173374209Y-89820801D01*
X173374209Y-89820801D02*
X173088495Y-89820801D01*
X173088495Y-89820801D02*
X172898019Y-89725563D01*
X172898019Y-89725563D02*
X172802780Y-89630325D01*
X172802780Y-89630325D02*
X172707542Y-89439849D01*
X172707542Y-89439849D02*
X172707542Y-88677944D01*
X171850400Y-91439849D02*
X171755161Y-91249373D01*
X171755161Y-91249373D02*
X171755161Y-90868420D01*
X171755161Y-90868420D02*
X171850400Y-90677944D01*
X171850400Y-90677944D02*
X172040876Y-90582706D01*
X172040876Y-90582706D02*
X172802780Y-90582706D01*
X172802780Y-90582706D02*
X172993257Y-90677944D01*
X172993257Y-90677944D02*
X173088495Y-90868420D01*
X173088495Y-90868420D02*
X173088495Y-91249373D01*
X173088495Y-91249373D02*
X172993257Y-91439849D01*
X172993257Y-91439849D02*
X172802780Y-91535087D01*
X172802780Y-91535087D02*
X172612304Y-91535087D01*
X172612304Y-91535087D02*
X172421828Y-90582706D01*
X173088495Y-92106516D02*
X173088495Y-92868420D01*
X173755161Y-92392230D02*
X172040876Y-92392230D01*
X172040876Y-92392230D02*
X171850400Y-92487468D01*
X171850400Y-92487468D02*
X171755161Y-92677944D01*
X171755161Y-92677944D02*
X171755161Y-92868420D01*
X171755161Y-93535087D02*
X173755161Y-93535087D01*
X173755161Y-93535087D02*
X173755161Y-94296992D01*
X173755161Y-94296992D02*
X173659923Y-94487468D01*
X173659923Y-94487468D02*
X173564685Y-94582706D01*
X173564685Y-94582706D02*
X173374209Y-94677944D01*
X173374209Y-94677944D02*
X173088495Y-94677944D01*
X173088495Y-94677944D02*
X172898019Y-94582706D01*
X172898019Y-94582706D02*
X172802780Y-94487468D01*
X172802780Y-94487468D02*
X172707542Y-94296992D01*
X172707542Y-94296992D02*
X172707542Y-93535087D01*
X171755161Y-96392230D02*
X172802780Y-96392230D01*
X172802780Y-96392230D02*
X172993257Y-96296992D01*
X172993257Y-96296992D02*
X173088495Y-96106516D01*
X173088495Y-96106516D02*
X173088495Y-95725563D01*
X173088495Y-95725563D02*
X172993257Y-95535087D01*
X171850400Y-96392230D02*
X171755161Y-96201754D01*
X171755161Y-96201754D02*
X171755161Y-95725563D01*
X171755161Y-95725563D02*
X171850400Y-95535087D01*
X171850400Y-95535087D02*
X172040876Y-95439849D01*
X172040876Y-95439849D02*
X172231352Y-95439849D01*
X172231352Y-95439849D02*
X172421828Y-95535087D01*
X172421828Y-95535087D02*
X172517066Y-95725563D01*
X172517066Y-95725563D02*
X172517066Y-96201754D01*
X172517066Y-96201754D02*
X172612304Y-96392230D01*
X171755161Y-98201754D02*
X173755161Y-98201754D01*
X171850400Y-98201754D02*
X171755161Y-98011278D01*
X171755161Y-98011278D02*
X171755161Y-97630325D01*
X171755161Y-97630325D02*
X171850400Y-97439849D01*
X171850400Y-97439849D02*
X171945638Y-97344611D01*
X171945638Y-97344611D02*
X172136114Y-97249373D01*
X172136114Y-97249373D02*
X172707542Y-97249373D01*
X172707542Y-97249373D02*
X172898019Y-97344611D01*
X172898019Y-97344611D02*
X172993257Y-97439849D01*
X172993257Y-97439849D02*
X173088495Y-97630325D01*
X173088495Y-97630325D02*
X173088495Y-98011278D01*
X173088495Y-98011278D02*
X172993257Y-98201754D01*
X172802780Y-101344612D02*
X172707542Y-101630326D01*
X172707542Y-101630326D02*
X172612304Y-101725564D01*
X172612304Y-101725564D02*
X172421828Y-101820802D01*
X172421828Y-101820802D02*
X172136114Y-101820802D01*
X172136114Y-101820802D02*
X171945638Y-101725564D01*
X171945638Y-101725564D02*
X171850400Y-101630326D01*
X171850400Y-101630326D02*
X171755161Y-101439850D01*
X171755161Y-101439850D02*
X171755161Y-100677945D01*
X171755161Y-100677945D02*
X173755161Y-100677945D01*
X173755161Y-100677945D02*
X173755161Y-101344612D01*
X173755161Y-101344612D02*
X173659923Y-101535088D01*
X173659923Y-101535088D02*
X173564685Y-101630326D01*
X173564685Y-101630326D02*
X173374209Y-101725564D01*
X173374209Y-101725564D02*
X173183733Y-101725564D01*
X173183733Y-101725564D02*
X172993257Y-101630326D01*
X172993257Y-101630326D02*
X172898019Y-101535088D01*
X172898019Y-101535088D02*
X172802780Y-101344612D01*
X172802780Y-101344612D02*
X172802780Y-100677945D01*
X171755161Y-102963659D02*
X171850400Y-102773183D01*
X171850400Y-102773183D02*
X171945638Y-102677945D01*
X171945638Y-102677945D02*
X172136114Y-102582707D01*
X172136114Y-102582707D02*
X172707542Y-102582707D01*
X172707542Y-102582707D02*
X172898019Y-102677945D01*
X172898019Y-102677945D02*
X172993257Y-102773183D01*
X172993257Y-102773183D02*
X173088495Y-102963659D01*
X173088495Y-102963659D02*
X173088495Y-103249374D01*
X173088495Y-103249374D02*
X172993257Y-103439850D01*
X172993257Y-103439850D02*
X172898019Y-103535088D01*
X172898019Y-103535088D02*
X172707542Y-103630326D01*
X172707542Y-103630326D02*
X172136114Y-103630326D01*
X172136114Y-103630326D02*
X171945638Y-103535088D01*
X171945638Y-103535088D02*
X171850400Y-103439850D01*
X171850400Y-103439850D02*
X171755161Y-103249374D01*
X171755161Y-103249374D02*
X171755161Y-102963659D01*
X171755161Y-105344612D02*
X172802780Y-105344612D01*
X172802780Y-105344612D02*
X172993257Y-105249374D01*
X172993257Y-105249374D02*
X173088495Y-105058898D01*
X173088495Y-105058898D02*
X173088495Y-104677945D01*
X173088495Y-104677945D02*
X172993257Y-104487469D01*
X171850400Y-105344612D02*
X171755161Y-105154136D01*
X171755161Y-105154136D02*
X171755161Y-104677945D01*
X171755161Y-104677945D02*
X171850400Y-104487469D01*
X171850400Y-104487469D02*
X172040876Y-104392231D01*
X172040876Y-104392231D02*
X172231352Y-104392231D01*
X172231352Y-104392231D02*
X172421828Y-104487469D01*
X172421828Y-104487469D02*
X172517066Y-104677945D01*
X172517066Y-104677945D02*
X172517066Y-105154136D01*
X172517066Y-105154136D02*
X172612304Y-105344612D01*
X171755161Y-106296993D02*
X173088495Y-106296993D01*
X172707542Y-106296993D02*
X172898019Y-106392231D01*
X172898019Y-106392231D02*
X172993257Y-106487469D01*
X172993257Y-106487469D02*
X173088495Y-106677945D01*
X173088495Y-106677945D02*
X173088495Y-106868422D01*
X171755161Y-108392231D02*
X173755161Y-108392231D01*
X171850400Y-108392231D02*
X171755161Y-108201755D01*
X171755161Y-108201755D02*
X171755161Y-107820802D01*
X171755161Y-107820802D02*
X171850400Y-107630326D01*
X171850400Y-107630326D02*
X171945638Y-107535088D01*
X171945638Y-107535088D02*
X172136114Y-107439850D01*
X172136114Y-107439850D02*
X172707542Y-107439850D01*
X172707542Y-107439850D02*
X172898019Y-107535088D01*
X172898019Y-107535088D02*
X172993257Y-107630326D01*
X172993257Y-107630326D02*
X173088495Y-107820802D01*
X173088495Y-107820802D02*
X173088495Y-108201755D01*
X173088495Y-108201755D02*
X172993257Y-108392231D01*
D11*
X148666667Y-91907200D02*
X148809524Y-91954819D01*
X148809524Y-91954819D02*
X149047619Y-91954819D01*
X149047619Y-91954819D02*
X149142857Y-91907200D01*
X149142857Y-91907200D02*
X149190476Y-91859580D01*
X149190476Y-91859580D02*
X149238095Y-91764342D01*
X149238095Y-91764342D02*
X149238095Y-91669104D01*
X149238095Y-91669104D02*
X149190476Y-91573866D01*
X149190476Y-91573866D02*
X149142857Y-91526247D01*
X149142857Y-91526247D02*
X149047619Y-91478628D01*
X149047619Y-91478628D02*
X148857143Y-91431009D01*
X148857143Y-91431009D02*
X148761905Y-91383390D01*
X148761905Y-91383390D02*
X148714286Y-91335771D01*
X148714286Y-91335771D02*
X148666667Y-91240533D01*
X148666667Y-91240533D02*
X148666667Y-91145295D01*
X148666667Y-91145295D02*
X148714286Y-91050057D01*
X148714286Y-91050057D02*
X148761905Y-91002438D01*
X148761905Y-91002438D02*
X148857143Y-90954819D01*
X148857143Y-90954819D02*
X149095238Y-90954819D01*
X149095238Y-90954819D02*
X149238095Y-91002438D01*
X149571429Y-90954819D02*
X149809524Y-91954819D01*
X149809524Y-91954819D02*
X150000000Y-91240533D01*
X150000000Y-91240533D02*
X150190476Y-91954819D01*
X150190476Y-91954819D02*
X150428572Y-90954819D01*
X150761905Y-91050057D02*
X150809524Y-91002438D01*
X150809524Y-91002438D02*
X150904762Y-90954819D01*
X150904762Y-90954819D02*
X151142857Y-90954819D01*
X151142857Y-90954819D02*
X151238095Y-91002438D01*
X151238095Y-91002438D02*
X151285714Y-91050057D01*
X151285714Y-91050057D02*
X151333333Y-91145295D01*
X151333333Y-91145295D02*
X151333333Y-91240533D01*
X151333333Y-91240533D02*
X151285714Y-91383390D01*
X151285714Y-91383390D02*
X150714286Y-91954819D01*
X150714286Y-91954819D02*
X151333333Y-91954819D01*
X133666667Y-91907200D02*
X133809524Y-91954819D01*
X133809524Y-91954819D02*
X134047619Y-91954819D01*
X134047619Y-91954819D02*
X134142857Y-91907200D01*
X134142857Y-91907200D02*
X134190476Y-91859580D01*
X134190476Y-91859580D02*
X134238095Y-91764342D01*
X134238095Y-91764342D02*
X134238095Y-91669104D01*
X134238095Y-91669104D02*
X134190476Y-91573866D01*
X134190476Y-91573866D02*
X134142857Y-91526247D01*
X134142857Y-91526247D02*
X134047619Y-91478628D01*
X134047619Y-91478628D02*
X133857143Y-91431009D01*
X133857143Y-91431009D02*
X133761905Y-91383390D01*
X133761905Y-91383390D02*
X133714286Y-91335771D01*
X133714286Y-91335771D02*
X133666667Y-91240533D01*
X133666667Y-91240533D02*
X133666667Y-91145295D01*
X133666667Y-91145295D02*
X133714286Y-91050057D01*
X133714286Y-91050057D02*
X133761905Y-91002438D01*
X133761905Y-91002438D02*
X133857143Y-90954819D01*
X133857143Y-90954819D02*
X134095238Y-90954819D01*
X134095238Y-90954819D02*
X134238095Y-91002438D01*
X134571429Y-90954819D02*
X134809524Y-91954819D01*
X134809524Y-91954819D02*
X135000000Y-91240533D01*
X135000000Y-91240533D02*
X135190476Y-91954819D01*
X135190476Y-91954819D02*
X135428572Y-90954819D01*
X136333333Y-91954819D02*
X135761905Y-91954819D01*
X136047619Y-91954819D02*
X136047619Y-90954819D01*
X136047619Y-90954819D02*
X135952381Y-91097676D01*
X135952381Y-91097676D02*
X135857143Y-91192914D01*
X135857143Y-91192914D02*
X135761905Y-91240533D01*
X163666667Y-91907200D02*
X163809524Y-91954819D01*
X163809524Y-91954819D02*
X164047619Y-91954819D01*
X164047619Y-91954819D02*
X164142857Y-91907200D01*
X164142857Y-91907200D02*
X164190476Y-91859580D01*
X164190476Y-91859580D02*
X164238095Y-91764342D01*
X164238095Y-91764342D02*
X164238095Y-91669104D01*
X164238095Y-91669104D02*
X164190476Y-91573866D01*
X164190476Y-91573866D02*
X164142857Y-91526247D01*
X164142857Y-91526247D02*
X164047619Y-91478628D01*
X164047619Y-91478628D02*
X163857143Y-91431009D01*
X163857143Y-91431009D02*
X163761905Y-91383390D01*
X163761905Y-91383390D02*
X163714286Y-91335771D01*
X163714286Y-91335771D02*
X163666667Y-91240533D01*
X163666667Y-91240533D02*
X163666667Y-91145295D01*
X163666667Y-91145295D02*
X163714286Y-91050057D01*
X163714286Y-91050057D02*
X163761905Y-91002438D01*
X163761905Y-91002438D02*
X163857143Y-90954819D01*
X163857143Y-90954819D02*
X164095238Y-90954819D01*
X164095238Y-90954819D02*
X164238095Y-91002438D01*
X164571429Y-90954819D02*
X164809524Y-91954819D01*
X164809524Y-91954819D02*
X165000000Y-91240533D01*
X165000000Y-91240533D02*
X165190476Y-91954819D01*
X165190476Y-91954819D02*
X165428572Y-90954819D01*
X165714286Y-90954819D02*
X166333333Y-90954819D01*
X166333333Y-90954819D02*
X166000000Y-91335771D01*
X166000000Y-91335771D02*
X166142857Y-91335771D01*
X166142857Y-91335771D02*
X166238095Y-91383390D01*
X166238095Y-91383390D02*
X166285714Y-91431009D01*
X166285714Y-91431009D02*
X166333333Y-91526247D01*
X166333333Y-91526247D02*
X166333333Y-91764342D01*
X166333333Y-91764342D02*
X166285714Y-91859580D01*
X166285714Y-91859580D02*
X166238095Y-91907200D01*
X166238095Y-91907200D02*
X166142857Y-91954819D01*
X166142857Y-91954819D02*
X165857143Y-91954819D01*
X165857143Y-91954819D02*
X165761905Y-91907200D01*
X165761905Y-91907200D02*
X165714286Y-91859580D01*
X148888095Y-57594819D02*
X148888095Y-58404342D01*
X148888095Y-58404342D02*
X148935714Y-58499580D01*
X148935714Y-58499580D02*
X148983333Y-58547200D01*
X148983333Y-58547200D02*
X149078571Y-58594819D01*
X149078571Y-58594819D02*
X149269047Y-58594819D01*
X149269047Y-58594819D02*
X149364285Y-58547200D01*
X149364285Y-58547200D02*
X149411904Y-58499580D01*
X149411904Y-58499580D02*
X149459523Y-58404342D01*
X149459523Y-58404342D02*
X149459523Y-57594819D01*
X149888095Y-57690057D02*
X149935714Y-57642438D01*
X149935714Y-57642438D02*
X150030952Y-57594819D01*
X150030952Y-57594819D02*
X150269047Y-57594819D01*
X150269047Y-57594819D02*
X150364285Y-57642438D01*
X150364285Y-57642438D02*
X150411904Y-57690057D01*
X150411904Y-57690057D02*
X150459523Y-57785295D01*
X150459523Y-57785295D02*
X150459523Y-57880533D01*
X150459523Y-57880533D02*
X150411904Y-58023390D01*
X150411904Y-58023390D02*
X149840476Y-58594819D01*
X149840476Y-58594819D02*
X150459523Y-58594819D01*
%TO.C,SW2*%
D12*
X147750000Y-97500000D02*
X147750000Y-96500000D01*
X148250000Y-94750000D02*
X151750000Y-94750000D01*
X151750000Y-99250000D02*
X148240000Y-99250000D01*
X152400000Y-96500000D02*
X152400000Y-97500000D01*
D13*
X147430000Y-94750000D02*
G75*
G02*
X147370000Y-94750000I-30000J0D01*
G01*
X147370000Y-94750000D02*
G75*
G02*
X147430000Y-94750000I30000J0D01*
G01*
D12*
X149180000Y-95500000D02*
G75*
G02*
X148620000Y-95500000I-280000J0D01*
G01*
X148620000Y-95500000D02*
G75*
G02*
X149180000Y-95500000I280000J0D01*
G01*
X149180000Y-98500000D02*
G75*
G02*
X148620000Y-98500000I-280000J0D01*
G01*
X148620000Y-98500000D02*
G75*
G02*
X149180000Y-98500000I280000J0D01*
G01*
X150920000Y-97000000D02*
G75*
G02*
X149080000Y-97000000I-920000J0D01*
G01*
X149080000Y-97000000D02*
G75*
G02*
X150920000Y-97000000I920000J0D01*
G01*
X151380000Y-95500000D02*
G75*
G02*
X150820000Y-95500000I-280000J0D01*
G01*
X150820000Y-95500000D02*
G75*
G02*
X151380000Y-95500000I280000J0D01*
G01*
X151380000Y-98500000D02*
G75*
G02*
X150820000Y-98500000I-280000J0D01*
G01*
X150820000Y-98500000D02*
G75*
G02*
X151380000Y-98500000I280000J0D01*
G01*
%TO.C,SW1*%
X132750000Y-97500000D02*
X132750000Y-96500000D01*
X133250000Y-94750000D02*
X136750000Y-94750000D01*
X136750000Y-99250000D02*
X133240000Y-99250000D01*
X137400000Y-96500000D02*
X137400000Y-97500000D01*
D13*
X132430000Y-94750000D02*
G75*
G02*
X132370000Y-94750000I-30000J0D01*
G01*
X132370000Y-94750000D02*
G75*
G02*
X132430000Y-94750000I30000J0D01*
G01*
D12*
X134180000Y-95500000D02*
G75*
G02*
X133620000Y-95500000I-280000J0D01*
G01*
X133620000Y-95500000D02*
G75*
G02*
X134180000Y-95500000I280000J0D01*
G01*
X134180000Y-98500000D02*
G75*
G02*
X133620000Y-98500000I-280000J0D01*
G01*
X133620000Y-98500000D02*
G75*
G02*
X134180000Y-98500000I280000J0D01*
G01*
X135920000Y-97000000D02*
G75*
G02*
X134080000Y-97000000I-920000J0D01*
G01*
X134080000Y-97000000D02*
G75*
G02*
X135920000Y-97000000I920000J0D01*
G01*
X136380000Y-95500000D02*
G75*
G02*
X135820000Y-95500000I-280000J0D01*
G01*
X135820000Y-95500000D02*
G75*
G02*
X136380000Y-95500000I280000J0D01*
G01*
X136380000Y-98500000D02*
G75*
G02*
X135820000Y-98500000I-280000J0D01*
G01*
X135820000Y-98500000D02*
G75*
G02*
X136380000Y-98500000I280000J0D01*
G01*
%TO.C,SW3*%
X162750000Y-97500000D02*
X162750000Y-96500000D01*
X163250000Y-94750000D02*
X166750000Y-94750000D01*
X166750000Y-99250000D02*
X163240000Y-99250000D01*
X167400000Y-96500000D02*
X167400000Y-97500000D01*
D13*
X162430000Y-94750000D02*
G75*
G02*
X162370000Y-94750000I-30000J0D01*
G01*
X162370000Y-94750000D02*
G75*
G02*
X162430000Y-94750000I30000J0D01*
G01*
D12*
X164180000Y-95500000D02*
G75*
G02*
X163620000Y-95500000I-280000J0D01*
G01*
X163620000Y-95500000D02*
G75*
G02*
X164180000Y-95500000I280000J0D01*
G01*
X164180000Y-98500000D02*
G75*
G02*
X163620000Y-98500000I-280000J0D01*
G01*
X163620000Y-98500000D02*
G75*
G02*
X164180000Y-98500000I280000J0D01*
G01*
X165920000Y-97000000D02*
G75*
G02*
X164080000Y-97000000I-920000J0D01*
G01*
X164080000Y-97000000D02*
G75*
G02*
X165920000Y-97000000I920000J0D01*
G01*
X166380000Y-95500000D02*
G75*
G02*
X165820000Y-95500000I-280000J0D01*
G01*
X165820000Y-95500000D02*
G75*
G02*
X166380000Y-95500000I280000J0D01*
G01*
X166380000Y-98500000D02*
G75*
G02*
X165820000Y-98500000I-280000J0D01*
G01*
X165820000Y-98500000D02*
G75*
G02*
X166380000Y-98500000I280000J0D01*
G01*
%TO.C,U2*%
X136050000Y-60700000D02*
X163250000Y-60700000D01*
X136050000Y-88500000D02*
X136050000Y-60700000D01*
X143300000Y-84750000D02*
X143300000Y-88500000D01*
X143300000Y-88500000D02*
X136050000Y-88500000D01*
X156150000Y-84750000D02*
X143300000Y-84750000D01*
X156150000Y-88500000D02*
X156150000Y-84750000D01*
X163250000Y-60700000D02*
X163250000Y-88500000D01*
X163250000Y-88500000D02*
X156150000Y-88500000D01*
D13*
X136080000Y-87740000D02*
G75*
G02*
X136020000Y-87740000I-30000J0D01*
G01*
X136020000Y-87740000D02*
G75*
G02*
X136080000Y-87740000I30000J0D01*
G01*
%TD*%
M02*
