%TF.GenerationSoftware,KiCad,Pcbnew,10.0.1*%
%TF.CreationDate,2026-04-20T14:19:03-04:00*%
%TF.ProjectId,Videocraft Tamagotchi,56696465-6f63-4726-9166-742054616d61,rev?*%
%TF.SameCoordinates,Original*%
%TF.FileFunction,Soldermask,Top*%
%TF.FilePolarity,Negative*%
%FSLAX46Y46*%
G04 Gerber Fmt 4.6, Leading zero omitted, Abs format (unit mm)*
G04 Created by KiCad (PCBNEW 10.0.1) date 2026-04-20 14:19:03*
%MOMM*%
%LPD*%
G01*
G04 APERTURE LIST*
G04 Aperture macros list*
%AMRoundRect*
0 Rectangle with rounded corners*
0 $1 Rounding radius*
0 $2 $3 $4 $5 $6 $7 $8 $9 X,Y pos of 4 corners*
0 Add a 4 corners polygon primitive as box body*
4,1,4,$2,$3,$4,$5,$6,$7,$8,$9,$2,$3,0*
0 Add four circle primitives for the rounded corners*
1,1,$1+$1,$2,$3*
1,1,$1+$1,$4,$5*
1,1,$1+$1,$6,$7*
1,1,$1+$1,$8,$9*
0 Add four rect primitives between the rounded corners*
20,1,$1+$1,$2,$3,$4,$5,0*
20,1,$1+$1,$4,$5,$6,$7,0*
20,1,$1+$1,$6,$7,$8,$9,0*
20,1,$1+$1,$8,$9,$2,$3,0*%
G04 Aperture macros list end*
%ADD10C,1.600000*%
%ADD11C,2.700000*%
%ADD12C,2.030000*%
%ADD13C,1.800000*%
%ADD14C,2.200000*%
%ADD15C,1.524000*%
%ADD16RoundRect,0.250000X0.825000X0.825000X-0.825000X0.825000X-0.825000X-0.825000X0.825000X-0.825000X0*%
%ADD17C,2.150000*%
%ADD18RoundRect,0.250000X0.350000X0.625000X-0.350000X0.625000X-0.350000X-0.625000X0.350000X-0.625000X0*%
%ADD19O,1.200000X1.750000*%
G04 APERTURE END LIST*
D10*
%TO.C,SW2*%
X147600000Y-95500000D03*
X152400000Y-95500000D03*
X147600000Y-98500000D03*
X152400000Y-98500000D03*
%TD*%
%TO.C,SW1*%
X132600000Y-95500000D03*
X137400000Y-95500000D03*
X132600000Y-98500000D03*
X137400000Y-98500000D03*
%TD*%
D11*
%TO.C,REF\u002A\u002A*%
X131000000Y-46000000D03*
%TD*%
%TO.C,REF\u002A\u002A*%
X169000000Y-46000000D03*
%TD*%
D10*
%TO.C,SW3*%
X162600000Y-95500000D03*
X167400000Y-95500000D03*
X162600000Y-98500000D03*
X167400000Y-98500000D03*
%TD*%
D12*
%TO.C,U2*%
X138000000Y-62700000D03*
X138000000Y-86500000D03*
X161300000Y-62700000D03*
X161300000Y-86500000D03*
D13*
X145840000Y-62140000D03*
X148380000Y-62140000D03*
X150920000Y-62140000D03*
X153460000Y-62140000D03*
%TD*%
D11*
%TO.C,REF\u002A\u002A*%
X169000000Y-108500000D03*
%TD*%
%TO.C,REF\u002A\u002A*%
X131000000Y-108500000D03*
%TD*%
D14*
%TO.C,BUZZER1*%
X153250000Y-53500000D03*
X146750000Y-53500000D03*
%TD*%
D15*
%TO.C,U1*%
X142380000Y-112000000D03*
X142380000Y-109460000D03*
X142380000Y-106920000D03*
X142380000Y-104380000D03*
X142380000Y-101840000D03*
X142380000Y-99300000D03*
X142380000Y-96760000D03*
X157620000Y-96760000D03*
X157620000Y-99300000D03*
X157620000Y-101840000D03*
X157620000Y-104380000D03*
X157620000Y-106920000D03*
X157620000Y-109460000D03*
X157620000Y-112000000D03*
%TD*%
D16*
%TO.C,J1*%
X152500000Y-89000000D03*
D17*
X147900000Y-89000000D03*
%TD*%
D18*
%TO.C,J2*%
X151000000Y-42500000D03*
D19*
X149000000Y-42500000D03*
%TD*%
M02*
